<?xml version="1.0" standalone="no"?><!DOCTYPE svg PUBLIC "-//W3C//DTD SVG 1.1//EN" "http://www.w3.org/Graphics/SVG/1.1/DTD/svg11.dtd"><svg t="1584845769705" class="icon" viewBox="0 0 1024 1024" version="1.1" xmlns="http://www.w3.org/2000/svg" p-id="4649" xmlns:xlink="http://www.w3.org/1999/xlink" width="200" height="200"><defs><style type="text/css"></style></defs><path d="M659.3 448.2H331.7c-8 0-15.5-4-20-10.7l-223.6-336c-10.6-16 0.8-37.3 20-37.3h327.6c8 0 15.5 4 20 10.7l223.6 336c10.6 16-0.8 37.3-20 37.3z" fill="#64B5FF" p-id="4650"></path><path d="M575.9 448.2H448.1L192 63.9h128.1z" fill="#1D7DE3" p-id="4651"></path><path d="M384.7 448.2h327.6c8 0 15.5-4 20-10.7l223.6-336c10.6-16-0.8-37.3-20-37.3H608.3c-8 0-15.5 4-20 10.7l-223.6 336c-10.6 16 0.9 37.3 20 37.3z" fill="#64B5FF" p-id="4652"></path><path d="M468.2 448.2H596L852 63.9H724z" fill="#1D7DE3" p-id="4653"></path><path d="M512.2 640.1m-320.1 0a320.1 320.1 0 1 0 640.2 0 320.1 320.1 0 1 0-640.2 0Z" fill="#f1f2f2" p-id="4654" data-spm-anchor-id="a313x.7781069.0.i20" class=""></path><path d="M512 640.7m-254.9 0a254.9 254.9 0 1 0 509.8 0 254.9 254.9 0 1 0-509.8 0Z" fill="#d8dbdd" p-id="4655" data-spm-anchor-id="a313x.7781069.0.i22" class=""></path><path d="M512.8 640.7m-127.1 0a127.1 127.1 0 1 0 254.2 0 127.1 127.1 0 1 0-254.2 0Z" fill="#FFFFFF" p-id="4656"></path></svg>