<?xml version="1.0" standalone="no"?><!DOCTYPE svg PUBLIC "-//W3C//DTD SVG 1.1//EN" "http://www.w3.org/Graphics/SVG/1.1/DTD/svg11.dtd"><svg t="1580965064328" class="icon" viewBox="0 0 1024 1024" version="1.1" xmlns="http://www.w3.org/2000/svg" p-id="1479" xmlns:xlink="http://www.w3.org/1999/xlink" width="200" height="200"><defs><style type="text/css"></style></defs><path d="M812.9 95.9H215.1c-63.9 0-116 51.6-116 115v115.5c0 3.3 0.5 6.6 1.8 9.6 3.9 9.2 12.8 14.7 22.2 14.7 2.1 0 194.5-0.1 362.2-0.3 15.2 0 27.6 12.3 27.6 27.6v270.7c0 10.4 6.7 19.8 16.9 22.9 7.5 2.3 15.6 0.6 21.9-4.1l77.2-57.8h0.1l77.4 58.1c4.2 3.2 9.3 4.8 14.4 4.8 4.9 0 9.8-1.5 14-4.5 6.4-4.6 10-12.2 10-20.1V374.4c0-13.4 10.9-24.4 24.3-24.4 64.2 0 135.6-0.1 135.6-0.1 13.3 0 24-10.7 24-24V211c0.2-63.5-51.9-115.1-115.8-115.1z m68 206c0 0.1 0 0.1-0.1 0.1-32.1 0-90.3 0-137.5 0.1 0 0-46.3-1.2-46.3 48.8v249.7c0 0.1-0.1 0.1-0.2 0.1l-53.3-40c-8.5-6.4-20.3-6.4-28.8 0l-53.5 40.1c-0.1 0.1-0.2 0-0.2-0.1V350.9c0-54.8-49-48.4-49.2-48.4-139 0.1-303.7 0.3-364.5 0.3-0.1 0-0.1 0-0.1-0.1V211c0-37 30.5-67 68-67H813c37.5 0 68 30.1 68 67v90.9z" fill="#fb1436" p-id="1480"></path><path d="M834.8 379.9c-13.3 0-24 10.7-24 24s10.7 24 24 24c17.1 0 29 5 36.3 15.3 8 11.2 8.6 25.1 8.6 29v246.4c0 88.1-71.7 159.9-159.9 159.9H214.3c-37.5 0-67.9-30.5-67.9-67.9V472.7c0-8.1 2.3-20.1 8.9-29.3 7.5-10.4 19.3-15.5 36-15.5 13.3 0 24-10.7 24-24s-10.7-24-24-24c-41 0-63.4 19.3-75.1 35.6-16.1 22.5-17.9 47.5-17.9 57.2v337.9c0 63.9 52 115.9 115.9 115.9h505.6c114.6 0 207.9-93.2 207.9-207.9V472.2c0-9.7-1.7-34.8-17.6-57-11.5-16.1-33.9-35.3-75.3-35.3z" fill="#fb1436" p-id="1481"></path></svg>