<?xml version="1.0" standalone="no"?><!DOCTYPE svg PUBLIC "-//W3C//DTD SVG 1.1//EN" "http://www.w3.org/Graphics/SVG/1.1/DTD/svg11.dtd"><svg t="1580965093859" class="icon" viewBox="0 0 1024 1024" version="1.1" xmlns="http://www.w3.org/2000/svg" p-id="1949" xmlns:xlink="http://www.w3.org/1999/xlink" width="200" height="200"><defs><style type="text/css"></style></defs><path d="M848.5 130H179.1c-62.4 0-113.3 50.8-113.3 113.3v446.3c0 62.5 50.8 113.3 113.3 113.3H389c1.2 0 2.3 0.5 3 1.4 26.9 32.4 95.6 115.4 96.2 116.2 0 0.1 0.1 0.1 0.1 0.2 8.7 10.3 22 16.3 36.6 16.3 14.5 0 27.9-5.9 36.6-16.3l86.6-102.8c8.5-10.1 7.2-25.3-2.9-33.8-10.1-8.5-25.3-7.2-33.8 2.9l-85.9 102c-0.4 0.1-0.8 0.1-1.2 0-8-9.6-70.2-84.8-95.4-115.3-9.9-11.9-24.5-18.8-40-18.8H179.1c-36 0-65.3-29.3-65.3-65.3V243.3c0-36 29.3-65.3 65.3-65.3h669.4c36 0 65.3 29.3 65.3 65.3v357c0 85.2-69.3 154.5-154.5 154.5H737c-27.8-0.3-42.4-22.7-42.6-32.3-0.2-13.1-10.9-23.6-24-23.6h-0.4c-13.3 0.2-23.8 11.1-23.6 24.4 0.6 37.3 37.8 79.2 90.3 79.6h22.5c111.7 0 202.5-90.8 202.5-202.5v-357C961.8 180.8 911 130 848.5 130z" fill="#fb1436" p-id="1950"></path><path d="M208.9 461.6c0 46.3 37.7 84 84 84s84-37.7 84-84-37.7-84-84-84-84 37.7-84 84z m120 0c0 19.8-16.1 36-36 36s-36-16.1-36-36 16.1-36 36-36 36 16.1 36 36zM437.8 461.6c0 46.3 37.7 84 84 84s84-37.7 84-84-37.7-84-84-84-84 37.7-84 84z m120 0c0 19.9-16.1 36-36 36s-36-16.2-36-36 16.2-36 36-36c19.9 0 36 16.1 36 36zM750.7 545.6c46.3 0 84-37.7 84-84s-37.7-84-84-84-84 37.7-84 84 37.6 84 84 84z m0-120c19.9 0 36 16.2 36 36s-16.2 36-36 36-36-16.2-36-36 16.1-36 36-36z" fill="#fb1436" p-id="1951"></path></svg>