<?xml version="1.0" standalone="no"?><!DOCTYPE svg PUBLIC "-//W3C//DTD SVG 1.1//EN" "http://www.w3.org/Graphics/SVG/1.1/DTD/svg11.dtd"><svg t="1580965078419" class="icon" viewBox="0 0 1024 1024" version="1.1" xmlns="http://www.w3.org/2000/svg" p-id="1714" xmlns:xlink="http://www.w3.org/1999/xlink" width="200" height="200"><defs><style type="text/css"></style></defs><path d="M815.8 109.7H424.2c-61.2 0-111 49.8-111 111l-0.1 215.5c0 6.7-5.4 12.1-12.1 12.1h-77.5c-43.6 0-79.3 35.7-79.3 79.3 0 43.6 35.7 79.3 79.3 79.3h98.1c22.1 0 40-17.9 40-40l-0.4-346.3c0-34.8 28.3-63 63-63h391.6c82.9 0 150 67.2 150 150v326.3c0 34.8-28.2 63-63 63h-16.6c-29.4 0-35.1-27.3-39.9-41.3-3.8-12.1-13.2-17.6-22.5-17.6-14.7 0-29.5 13.4-22.9 36 3.8 15.4 8 23.6 16.5 35.4 16.6 22.9 41.1 35.5 68.9 35.5h16.6c61.3 0 111-49.7 111-111V307.8c0-109.4-88.7-198.1-198.1-198.1zM223.5 559.1c-8.3 0-16.1-3.3-22.1-9.2-6-6-9.2-13.8-9.2-22.1s3.3-16.1 9.2-22.1c6-6 13.8-9.2 22.1-9.2h90.4v62.7h-90.4v-0.1z" fill="#fb1436" p-id="1715"></path><path d="M313.4 679.7c41.1 0 74.6 33.4 74.6 74.6s-33.4 74.6-74.6 74.6-74.6-33.4-74.6-74.6 33.5-74.6 74.6-74.6m0-48c-67.7 0-122.6 54.9-122.6 122.6 0 67.7 54.9 122.6 122.6 122.6S436 822 436 754.3c0-67.7-54.9-122.6-122.6-122.6zM692.5 679.7c41.1 0 74.6 33.4 74.6 74.6s-33.4 74.6-74.6 74.6-74.6-33.4-74.6-74.6 33.5-74.6 74.6-74.6m0-48c-67.7 0-122.6 54.9-122.6 122.6 0 67.7 54.9 122.6 122.6 122.6S815 822 815 754.3c0-67.7-54.8-122.6-122.5-122.6zM274.4 305.8h-23.6c-64.6 0-125.3 25.2-171 70.8C34.2 422.3 9 483 9 547.6v87.1c0 30.1 10.7 57.9 30.2 78.2 20.3 21.2 49.1 32.9 80.9 32.9h37c13.3 0 24-10.7 24-24s-10.7-24-24-24h-37c-18.9 0-34.9-6.3-46.3-18.1C63 668.4 57 652.4 57 634.8v-87.1c0-106.9 87-193.8 193.8-193.8h23.6c13.3 0 24-10.7 24-24 0-13.4-10.7-24.1-24-24.1zM542.2 697.5h-82c-13.2 0-24 10.8-24 24s10.8 24 24 24h82c13.2 0 24-10.8 24-24s-10.8-24-24-24z" fill="#fb1436" p-id="1716"></path></svg>