<?xml version="1.0" standalone="no"?><!DOCTYPE svg PUBLIC "-//W3C//DTD SVG 1.1//EN" "http://www.w3.org/Graphics/SVG/1.1/DTD/svg11.dtd"><svg t="1580965123792" class="icon" viewBox="0 0 1024 1024" version="1.1" xmlns="http://www.w3.org/2000/svg" p-id="2184" xmlns:xlink="http://www.w3.org/1999/xlink" width="200" height="200"><defs><style type="text/css"></style></defs><path d="M904.3 328.8c-22.5-52.9-54.6-100.3-95.6-141.1-41-40.7-88.6-72.7-141.8-95.1-55-23.1-113.4-34.9-173.6-34.9-56.8 0-111.9 11.1-163.7 32.9-50.1 21.1-95.1 51.3-133.7 89.7-38.6 38.4-69 83.2-90.2 133.1-22 51.6-33.1 106.5-33.1 163v0.8c0 53.2 10.5 104.9 31.2 153.5 20 47 48.6 89.3 85.1 125.5 36.4 36.3 78.9 64.7 126.1 84.6 48.9 20.6 100.9 31 154.5 31 41.4 0 63.1-18.8 74.1-34.6 31.3-45 15.8-122-5.5-184.1 12.3-2 23.7-5.6 34.3-10.9 17.2-8.5 30.5-20.4 39.7-35.8 9.2-15.3 13.8-31.7 13.8-49 0-17.5-4.2-32.9-12.6-46.3-8.4-13.4-21.4-24.5-39-33.2-12.1-5.9-34.4-12.9-66.9-20.8-32.5-7.9-52.6-15.7-60.3-23.2-7.8-7.6-11.8-17.2-11.8-28.9 0-13.5 5.5-25 16.6-34.6 11.1-9.6 28.7-14.3 52.9-14.3 23.2 0 40.8 5.3 52.7 15.8 8.6 7.6 14.6 17.8 18.1 30.6 2.5 9.2 11.1 15.4 20.6 14.6 12.1-1 20.4-12.6 17.5-24.4-2.5-10.2-6.4-19.8-11.8-28.6-9.2-15.1-22.4-26.6-39.5-34.3-13.5-6.1-28.7-9.9-45.5-11.1 0-0.2 0-0.3-0.1-0.5 0-0.1-1.9-12.3-1-28 0.8-13.6 3.8-32.5 14-45.2 8.3-10.3 6.6-25.4-3.7-33.7s-25.4-6.6-33.7 3.7c-14.6 18.1-22.8 42.5-24.5 72.5-0.9 15.6 0.3 28.4 1 34.6-7.4 1.8-14.5 4.2-21.2 7.2-16.6 7.4-29.3 18.3-37.9 32.6-8.7 14.3-13 29.7-13 46.1 0 15 3.5 28.5 10.6 40.6 7.1 12.1 17.8 22.2 32.3 30.3 11.1 6.4 30.6 13.1 58.4 20.3 27.8 7.2 45.7 12.5 53.8 15.9 12.6 5.2 21.7 11.6 27.2 19.2s8.2 16.6 8.2 26.8c0 10.1-2.9 19.4-8.6 27.9-5.7 8.5-14.4 15.2-26.1 20.1-11.7 4.9-25.2 7.3-40.4 7.3-17.2 0-32.6-3.2-46.4-9.7-13.7-6.4-23.9-14.9-30.4-25.3-4.2-6.6-7.3-14.5-9.6-23.5-2.3-9.5-11.3-15.8-21-14.9-11.6 1.1-19.6 12-17.3 23.4 2.6 13.3 7.4 25.7 14.3 37 10.5 17.3 25 30.2 43.5 38.8 12.1 5.6 26 9.4 41.8 11.3C514.2 726 520.6 786 504 809.9c-4.2 6-12.3 14-34.6 14-93.2 0-180.8-36.1-246.7-101.7-65.9-65.5-102.1-152.7-102.1-245.3v-0.8c0.1-98.9 38.8-191.9 109.1-261.8 70.4-70 164-108.6 263.6-108.6 53.8 0 105.9 10.5 155 31.1 47.4 19.9 90 48.5 126.5 84.9 36.5 36.4 65.2 78.7 85.3 125.8 20.7 48.8 31.2 100.6 31.2 154 0 57.1-11.2 112.4-33.4 164.5-21.4 50.3-52 95.5-91.1 134.4-39 38.8-84.5 69.3-135.1 90.6-52.4 22-108 33.2-165.4 33.2-35.9 0-71.7-4.2-106.4-12.5-12.9-3.1-25.8 4.9-28.9 17.8-3.1 12.9 4.9 25.8 17.8 28.9 38.3 9.1 77.8 13.8 117.5 13.8 63.8 0 125.7-12.4 184.1-37 56.3-23.7 106.9-57.6 150.3-100.8 43.4-43.2 77.5-93.6 101.4-149.6 24.7-58.1 37.2-119.7 37.2-183.3 0-59.8-11.8-118-35-172.7z" fill="#fb1436" p-id="2185"></path></svg>