<?xml version="1.0" standalone="no"?><!DOCTYPE svg PUBLIC "-//W3C//DTD SVG 1.1//EN" "http://www.w3.org/Graphics/SVG/1.1/DTD/svg11.dtd"><svg t="1584172177082" class="icon" viewBox="0 0 1024 1024" version="1.1" xmlns="http://www.w3.org/2000/svg" p-id="1978" xmlns:xlink="http://www.w3.org/1999/xlink" width="200" height="200"><defs><style type="text/css"></style></defs><path d="M1024 824c0 110-90 200-200 200H200C90 1024 0 934 0 824V200C0 90 90 0 200 0h624c110 0 200 90 200 200v624z" fill="#d7282b" p-id="1979" data-spm-anchor-id="a313x.7781069.0.i0" class="selected"></path><path d="M511.666 209.543c-167.416 0-302.275 134.859-302.275 302.263 0 167.412 134.859 302.268 302.275 302.268 167.397 0 302.253-134.855 302.253-302.268 0-167.403-134.856-302.263-302.253-302.263z m0 574.051c-150.05 0-271.793-121.757-271.793-271.787 0-150.035 121.744-271.782 271.793-271.782 150.035 0 271.779 121.747 271.779 271.782-0.001 150.03-121.745 271.787-271.779 271.787z m0 0" fill="#FFFFFF" p-id="1980"></path><path d="M715.794 412.197c-2.438-6.154-9.825-8.613-15.976-4.922-6.149 2.459-8.612 9.844-4.918 15.988 13.519 28.29 20.894 57.797 20.894 88.544 0 111.906-90.994 202.919-202.909 202.919-6.144 0-12.294 4.925-12.294 12.306 0 6.15 4.918 12.287 12.294 12.287 125.434 0 226.29-102.068 226.29-226.281-1.231-35.669-8.612-68.866-23.381-100.841z m0 0M511.666 308.887c52.872 0 103.291 20.906 141.416 57.8 2.463 2.462 4.925 3.69 8.619 3.69 3.688 0 6.144-1.228 8.594-3.69 4.938-4.916 4.938-12.297 0-17.209-43.031-41.819-98.368-63.95-158.628-63.95-6.156 0-12.309 4.916-12.309 12.297-0.002 6.144 6.151 11.062 12.308 11.062z m0 0M432.95 698.743c-75.019-31.975-124.209-105.769-124.209-186.937 0-78.707 46.731-151.266 118.056-184.469 6.153-2.459 8.609-9.844 6.153-15.984-2.459-6.153-9.844-8.609-15.984-6.153-79.944 36.894-131.591 118.063-131.591 206.606 0 91.012 54.109 173.412 138.966 209.063 1.231 1.244 3.69 1.244 4.922 1.244 4.919 0 8.603-2.463 11.065-7.388 1.229-6.151-1.231-13.519-7.378-15.982z m0 0" fill="#FFFFFF" p-id="1981"></path><path d="M477.219 557.313c3.69 0 7.381-1.238 9.847-3.687 7.372-7.383 8.6-15.994 2.453-27.063-2.453-2.45-9.837-13.525-24.597-30.74-2.456-2.454-3.69-4.916-6.144-7.381v-3.691h17.213c4.918 0 11.075-1.225 13.528-8.603v36.89c0 8.613 1.234 14.757 4.919 18.457 2.465 3.681 7.381 4.919 13.535 4.919H610.05c6.145 0 11.056-1.238 14.75-4.919 3.688-3.7 4.919-9.844 4.919-18.457v-92.234c0-8.605-1.231-14.759-6.145-18.446-4.924-4.919-12.312-7.381-22.137-6.15h-89.772c-7.384 0-13.541 1.231-17.228 6.15-3.685 3.687-4.919 11.068-4.919 19.678v39.356c-2.453-6.144-8.609-8.622-13.528-9.838h-17.213v-27.059h3.688c2.456-1.231 6.15-1.231 8.612-2.459 11.063-2.462 17.209-9.837 15.988-19.678-2.466-8.613-8.613-13.528-18.45-13.528h-3.694c-12.297 2.462-31.972 6.147-57.797 8.609h-8.609c-12.3 2.459-18.45 9.837-18.45 20.906 1.231 6.15 4.918 13.522 17.215 13.522h15.991c3.694 0 7.384-1.216 9.834-1.216v22.119H397.28c-11.065 1.241-15.984 7.381-17.215 17.219 0 14.763 8.609 17.229 15.994 17.229h24.597c-8.619 33.21-22.141 62.716-36.897 88.541-7.384 13.537-1.231 20.918 4.916 23.381 2.462 1.226 6.15 2.456 8.606 2.456 6.15 0 11.072-3.699 15.991-8.619 3.694-6.144 7.384-12.293 9.834-20.912v57.813c0 6.15 2.466 14.751 17.222 15.988 13.531-1.237 17.219-8.613 17.219-14.77v-81.162c1.231 2.463 2.456 3.694 3.685 4.918 7.384-1.226 11.068 2.461 15.987 2.461z m49.194-62.729V430.65c0-3.693 1.225-3.693 2.462-3.693h61.488c3.692 1.228 3.692 2.453 3.692 2.453v63.959c0 2.454-1.243 2.454-2.462 2.454h-63.956c-1.224 1.234-1.224-0.001-1.224-1.239z m0 0" fill="#FFFFFF" p-id="1982"></path><path d="M541.169 538.862c-3.694-1.23-6.156-2.449-9.838-2.449-6.144 0-12.294 3.681-15.987 11.056-14.753 25.831-28.278 45.506-43.044 60.274-11.068 11.069-7.378 20.9-2.465 25.819 4.925 3.688 8.619 4.912 13.541 4.912 4.912 0 9.838-2.449 14.75-6.138 19.681-22.149 36.888-44.28 49.193-67.649 7.375-11.061 4.925-19.674-6.15-25.825z m0 0M640.787 607.743c-12.3-24.605-25.831-46.749-41.806-66.418-8.618-7.382-17.219-8.606-25.837-3.693-4.919 3.693-7.382 7.381-8.607 11.074-1.225 3.688 0 8.606 3.688 12.288 11.068 14.763 24.587 35.681 40.587 61.5 3.693 6.149 8.606 9.843 14.762 9.843 2.457 0 4.913 0 7.37-1.243 9.843-4.912 13.525-13.52 9.843-23.351z m0 0" fill="#FFFFFF" p-id="1983"></path></svg>