<?xml version="1.0" standalone="no"?><!DOCTYPE svg PUBLIC "-//W3C//DTD SVG 1.1//EN" "http://www.w3.org/Graphics/SVG/1.1/DTD/svg11.dtd"><svg t="1581669596561" class="icon" viewBox="0 0 1024 1024" version="1.1" xmlns="http://www.w3.org/2000/svg" p-id="1721" xmlns:xlink="http://www.w3.org/1999/xlink" width="200" height="200"><defs><style type="text/css"></style></defs><path d="M895.0272 545.2288c0 211.7376-171.648 383.3856-383.3856 383.3856-211.7632 0-383.4112-171.648-383.4112-383.3856S299.8784 161.792 511.6416 161.792c211.7376 0 383.3856 171.6736 383.3856 383.4112z" fill="#0086FF" opacity=".3" p-id="1722"></path><path d="M1.3312 554.8288c7.168 59.904 14.4896 123.2128 22.4512 186.4448 2.5344 19.072 19.584 32.768 38.7584 31.1296 18.176-1.8176 32.5888-18.944 30.7712-38.7328-4.6848-48.9728-10.8544-97.92-15.3856-146.8928-14.2848-156.16 30.3104-291.584 145.92-399.7696 71.6288-66.9696 157.1328-106.6752 256.128-112.9728 159.6416-10.1888 289.1264 48.9472 386.432 174.9504 49.1008 63.5904 75.8272 137.5488 83.1488 218.0096 0.9472 10.2912 1.4848 20.6336 3.0976 30.7712 3.072 19.3536 20.224 31.8208 39.68 29.3888 20.0192-2.4576 31.744-15.7184 30.208-35.328-4.5568-59.648-14.592-118.1184-38.016-173.6704-47.7184-113.152-123.7504-202.0352-233.9584-256.5888C569.4208-28.0576 391.04-18.944 224.4352 96.9472 101.4272 182.4768 31.488 304.4864 9.2928 452.8128 4.5312 485.2224 4.096 518.2208 1.3312 554.8288z" fill="#0086FF" p-id="1723"></path><path d="M331.0336 550.6048c6.144 151.68 43.8528 295.5008 113.1008 431.4112 9.728 19.1488 25.088 27.776 42.9056 24.0128 14.976-3.1488 27.7504-16.9216 27.7504-33.0496 0-8.9344-3.072-18.5088-7.168-26.5984a967.2448 967.2448 0 0 1-77.824-210.56c-17.1776-70.9376-24.7808-143.1552-26.4448-215.9872-1.408-59.2384 47.2576-111.4368 104.704-113.3056 61.8496-1.9712 113.1008 44.7488 114.688 106.88 2.816 108.8 24.064 213.2992 71.3728 311.552 16.6144 34.5344 37.1968 67.2256 57.0368 100.1216 9.984 16.6144 30.5408 20.1984 46.976 10.3424 16.896-10.112 22.4512-32.1536 11.8784-50.688-9.5488-16.64-20.5312-32.512-30.0288-49.2288-39.3216-69.248-64.4608-143.6928-76.928-222.0544-5.12-32.256-6.0416-65.3568-7.0912-98.0992-2.816-86.9888-58.2656-158.8992-138.8544-178.5856-90.0608-21.9904-178.56 25.3952-213.0944 113.7664-12.6208 32.2048-16.0256 65.4336-12.9792 100.0704z" fill="#0086FF" p-id="1724"></path><path d="M514.9952 239.2064c123.9552-1.536 231.5264 84.6848 262.2208 210.3296 7.2704 29.7472 9.6768 61.0304 11.3152 91.776 5.1456 96.768 33.7408 185.8048 84.5312 267.9552 11.8272 19.072 32.0256 24.7808 49.4848 14.3104 18.2784-10.9568 23.1936-29.3888 11.5456-49.8176-26.7776-47.0784-51.5072-95.232-61.4144-148.8384a780.032 780.032 0 0 1-13.0816-112.896c-2.9184-80.512-26.5984-153.088-77.056-215.9872-57.1904-71.1936-131.968-112.8192-222.2848-125.184-73.216-10.0608-142.848 2.3808-208 38.144-13.5168 7.424-21.888 18.048-21.6064 33.5872 0.256 12.9024 6.0672 23.4496 18.0736 29.696 12.4416 6.4768 23.8848 2.816 36.352-1.5616a1395.0976 1395.0976 0 0 1 92.16-28.6976c11.9552-3.2256 25.1392-1.9712 37.76-2.816zM168.7552 554.5984A1196.544 1196.544 0 0 0 238.08 913.8176c7.3472 20.6336 25.1904 30.4384 46.6432 25.6768 15.488-3.4048 25.344-15.6672 23.8848-31.5392a108.5952 108.5952 0 0 0-5.7344-26.0096c-25.4976-72.7296-44.3392-147.3536-53.504-223.8208-7.8848-65.9968-16.3584-132.4032-4.3264-199.0144a246.016 246.016 0 0 1 38.7072-95.744c7.424-10.9312 12.5184-22.3744 7.7568-35.584-4.1984-11.7504-12.5696-19.8144-25.2672-21.888-13.1584-2.1248-24.1152 2.0736-31.8464 13.2864-33.024 47.872-54.784 100.4032-61.696 158.2592-3.072 25.4976-2.7392 51.4048-3.9424 77.1584z m310.8352-20.736c3.1744 123.648 30.0544 241.5616 84.1728 352.8704 15.3856 31.5904 33.152 61.9776 50.432 92.5952 12.032 21.2992 31.744 27.2128 50.8672 16.3584 18.3552-10.4448 23.3728-31.9488 10.5216-52.5568-31.104-49.92-57.7536-101.9648-77.8752-157.2608-31.5648-86.7328-46.08-176.5888-48.3584-268.5696-0.6144-25.1904-15.616-40.9088-37.2736-39.7056-18.2784 1.024-31.488 14.08-32.384 32.4096-0.4096 7.9104-0.1024 15.872-0.1024 23.8848zM121.344 1004.5184c23.5776-0.1792 39.7568-19.584 33.152-42.6496-7.2192-25.1904-16.4864-49.7664-26.0096-74.1632-5.888-15.0016-27.8784-20.7104-46.6944-13.6704-17.28 6.4512-26.7008 22.8352-20.992 40.3968 7.6288 23.0656 16.384 45.824 25.9328 68.1472 6.5024 15.0272 19.4048 22.0416 34.6112 21.9392z m892.8512-110.7968c-0.1792-20.4288-12.5696-33.8432-31.2832-33.9456-21.4272-0.1536-38.4768 15.1552-38.4512 34.5344 0 17.536 18.3552 34.304 37.632 34.3296 18.7904 0.0512 32.3072-14.6688 32.1024-34.9184z" fill="#0086FF" p-id="1725"></path></svg>