<?xml version="1.0" standalone="no"?><!DOCTYPE svg PUBLIC "-//W3C//DTD SVG 1.1//EN" "http://www.w3.org/Graphics/SVG/1.1/DTD/svg11.dtd"><svg t="1582435126266" class="icon" viewBox="0 0 1024 1024" version="1.1" xmlns="http://www.w3.org/2000/svg" p-id="2309" xmlns:xlink="http://www.w3.org/1999/xlink" width="200" height="200"><defs><style type="text/css"></style></defs><path d="M426.542817 0.599756h170.530695C710.527404-1.899228 833.477436 32.886635 911.045912 112.954095c80.167419 77.568476 114.853323 200.518508 112.454298 313.972399v170.530696c2.399025 113.453892-32.286878 236.403924-112.454298 313.972399-77.568476 80.167419-200.518508 114.853323-313.9724 112.454298H426.542817c-113.453892 2.399025-236.403924-32.286878-313.9724-112.454298C32.402998 833.961073-2.282906 711.011041 0.116119 597.557149V427.026454C-2.282906 313.472603 32.402998 190.52257 112.570417 112.954095 190.138893 32.886635 313.088925-1.899228 426.542817 0.599756z" fill="#775CFF" p-id="2310"></path><path d="M112.570417 112.954095C36.90117 186.224317 1.715469 299.878128 0.116119 407.834254c137.943939 0 249.79848-111.954501 249.798481-249.89844 0-42.782613-10.795613-83.066241-29.687935-118.251942-40.583507 17.892728-77.568476 42.182857-107.656248 73.270223z" fill="#FFFFFF" opacity=".5" p-id="2311"></path><path d="M603.270993 624.146343c1.499391 4.398213 2.498984 9.096303 2.498985 13.994313v60.075585c0 24.889885-20.191794 45.081679-45.081679 45.081678h-90.163357c-24.889885 0-45.081679-20.191794-45.081678-45.081678v-60.075585c0-3.798456 0.599756-7.496953 1.49939-11.095491-78.168232-32.986594-133.045929-110.45511-133.045929-200.618467 0-120.351089 97.560351-217.911439 217.91144-217.91144s217.911439 97.560351 217.911439 217.91144c0 87.664373-51.778957 163.133701-126.448611 197.719645zM494.815071 528.885058c3.798456 3.798456 8.496547 5.697684 14.094272 5.697684 5.397806 0 10.095897-1.799269 14.094272-5.397806 3.998375-3.998375 5.997563-8.696466 5.997562-14.094272 0-5.797644-1.899228-10.395775-5.697684-13.794394-3.598538-3.598538-8.396588-5.397806-14.294191-5.397806-5.797644 0-10.495734 1.799269-14.094272 5.397806-3.798456 3.398619-5.697684 7.99675-5.697684 13.794394-0.099959 5.397806 1.799269 9.995938 5.597725 13.794394z m61.075178-176.928096c-10.595694-9.5961-24.689966-14.294191-42.182856-14.29419-19.991875 0-35.685497 5.797644-47.080866 17.292972-11.395369 11.395369-16.993094 26.889072-16.993094 46.48111h28.388462c0-11.895166 2.399025-21.091428 7.297035-27.588788 5.397806-7.796831 14.194231-11.595288 26.489235-11.595288 9.895978 0 17.59285 2.698903 22.990656 8.09671 5.197888 5.597725 7.796831 12.994719 7.796831 22.190981 0 6.697278-2.498984 13.294597-7.596912 19.791957l-4.598132 5.097928c-16.993094 15.193825-27.18895 26.289316-30.587569 33.58635-3.598538 6.697278-5.397806 15.193825-5.397806 25.68956v4.598131h28.988219v-4.598131c0-6.697278 1.399431-12.594881 4.298253-17.892729 2.498984-5.197888 6.297441-9.895978 11.395369-14.094272 12.7948-11.19545 20.391713-18.192606 22.690778-21.091428 6.897197-8.796425 10.295816-19.791956 10.295816-32.986594 0.099959-16.393338-5.397806-29.288097-16.193419-38.684279zM449.533473 770.886707H569.784603c12.494922 0 22.590819 10.095897 22.590818 22.590819 0 12.494922-10.095897 22.590819-22.590818 22.590819H449.533473c-12.494922 0-22.590819-10.095897-22.590819-22.590819 0.099959-12.494922 10.195856-22.590819 22.590819-22.590819z" fill="#FFFFFF" p-id="2312"></path><path d="M728.220213 451.916338c-95.361245 36.285253-163.233661 128.547757-163.23366 236.703802 0 18.392525 1.999188 36.385213 5.697684 53.678185 19.991875-4.598131 34.985782-22.49086 34.985781-43.982125v-60.075585c0-4.898009-0.999594-9.5961-2.498984-13.994313 67.372619-31.287285 116.152795-95.661123 125.049179-172.329964zM579.480662 773.085813c3.398619 9.496141 7.297034 18.692403 11.695247 27.588788 0.799675-2.299066 1.199513-4.698091 1.199512-7.297035 0-8.896384-5.297847-16.693216-12.894759-20.291753z" fill="#775CFF" opacity=".5" p-id="2313"></path></svg>