<?xml version="1.0" standalone="no"?><!DOCTYPE svg PUBLIC "-//W3C//DTD SVG 1.1//EN" "http://www.w3.org/Graphics/SVG/1.1/DTD/svg11.dtd"><svg t="1582435188986" class="icon" viewBox="0 0 1024 1024" version="1.1" xmlns="http://www.w3.org/2000/svg" p-id="2607" xmlns:xlink="http://www.w3.org/1999/xlink" width="200" height="200"><defs><style type="text/css"></style></defs><path d="M426.542817 0.599756h170.530695C710.527404-1.899228 833.477436 32.886635 911.045912 112.954095c80.167419 77.568476 114.853323 200.518508 112.454298 313.972399v170.530696c2.399025 113.453892-32.286878 236.403924-112.454298 313.972399-77.568476 80.167419-200.518508 114.853323-313.9724 112.454298H426.542817c-113.453892 2.399025-236.403924-32.286878-313.9724-112.454298C32.402998 833.961073-2.282906 711.011041 0.116119 597.557149V427.026454C-2.282906 313.472603 32.402998 190.52257 112.570417 112.954095 190.138893 32.886635 313.088925-1.899228 426.542817 0.599756z" fill="#8447FC" p-id="2608"></path><path d="M112.570417 112.954095C36.90117 186.224317 1.715469 299.878128 0.116119 407.834254c137.943939 0 249.79848-111.954501 249.798481-249.89844 0-42.782613-10.795613-83.066241-29.687935-118.251942-40.583507 17.892728-77.568476 42.182857-107.656248 73.270223z" fill="#FFFFFF" opacity=".5" p-id="2609"></path><path d="M623.162909 357.15485c0.699716-4.997969 0.999594-9.995938 0.999594-15.093866 0-61.874854-50.479485-112.254379-112.454298-112.254379s-112.454298 50.379525-112.454298 112.254379c0 5.097928 0.399838 10.095897 0.999594 15.093866C334.78011 391.440916 289.89835 460.212967 289.89835 539.480752v49.57985C289.89835 702.614453 381.960935 794.677038 495.614746 794.677038h32.486797C641.655394 794.677038 733.717979 702.614453 733.717979 589.060602v-49.57985c0-79.267785-44.88176-148.039836-110.55507-182.325902zM511.808165 289.782231c27.18895 0 49.57985 20.79155 52.178794 47.180825-11.695247-2.099147-23.690372-3.098741-35.985376-3.098741h-32.486797c-12.295003 0-24.290128 1.099553-35.985375 3.098741 2.698903-26.489235 25.089803-47.180825 52.278754-47.180825z m0 386.742825c-61.974813 0-112.454298-50.379525-112.454298-112.254379S449.833351 452.016298 511.808165 452.016298s112.454298 50.379525 112.454297 112.254379S573.782978 676.525056 511.808165 676.525056z" fill="#FFFFFF" p-id="2610"></path><path d="M511.808165 511.991923c-28.88826 0-52.478672 23.490453-52.478673 52.278754 0 28.7883 23.490453 52.278754 52.478673 52.278753 28.88826 0 52.478672-23.490453 52.478672-52.278753 0-28.88826-23.590413-52.278754-52.478672-52.278754z" fill="#FFFFFF" p-id="2611"></path><path d="M624.262462 705.713194c0 20.691591 4.498172 40.283628 12.494922 57.976438 58.276316-36.285253 96.960595-100.95897 96.960595-174.62903v-20.591631C671.04345 582.663202 624.262462 638.740412 624.262462 705.713194z" fill="#8447FC" opacity=".5" p-id="2612"></path></svg>