<?xml version="1.0" standalone="no"?><!DOCTYPE svg PUBLIC "-//W3C//DTD SVG 1.1//EN" "http://www.w3.org/Graphics/SVG/1.1/DTD/svg11.dtd"><svg t="1582435204186" class="icon" viewBox="0 0 1024 1024" version="1.1" xmlns="http://www.w3.org/2000/svg" p-id="2757" xmlns:xlink="http://www.w3.org/1999/xlink" width="200" height="200"><defs><style type="text/css"></style></defs><path d="M426.542817 0.599756h170.530695C710.527404-1.899228 833.477436 32.886635 911.045912 112.954095c80.167419 77.568476 114.853323 200.518508 112.454298 313.972399v170.530696c2.399025 113.453892-32.286878 236.403924-112.454298 313.972399-77.568476 80.167419-200.518508 114.853323-313.9724 112.454298H426.542817c-113.453892 2.399025-236.403924-32.286878-313.9724-112.454298C32.402998 833.961073-2.282906 711.011041 0.116119 597.557149V427.026454C-2.282906 313.472603 32.402998 190.52257 112.570417 112.954095 190.138893 32.886635 313.088925-1.899228 426.542817 0.599756z" fill="#03BBFF" p-id="2758"></path><path d="M112.570417 112.954095C36.90117 186.224317 1.715469 299.878128 0.116119 407.834254c137.943939 0 249.79848-111.954501 249.798481-249.89844 0-42.782613-10.795613-83.066241-29.687935-118.251942-40.583507 17.892728-77.568476 42.182857-107.656248 73.270223z" fill="#FFFFFF" opacity=".5" p-id="2759"></path><path d="M793.093848 524.986642l-36.085334 140.94272c-19.392119 75.669248-40.683466 128.547757-118.751739 128.547758H403.152323c-37.984563 0-55.477454-30.987407-55.177576-68.97197l1.499391-194.520945c0.299878-36.485172 15.893541-66.373026 52.478672-67.872417l4.698091-1.399431c12.394963-0.499797 23.590413-7.297034 29.787894-17.992687L545.694393 254.896409c8.896384-15.393744 25.389681-24.889885 43.28241-24.889885 29.188138 0 52.178794 24.889885 49.779769 53.978063l-11.095491 137.74402c-1.699309 21.091428 14.993906 39.184075 36.185294 39.184075h79.567663c33.486391 0 57.976438 31.587163 49.67981 64.07396z m-83.066241 75.26941c-8.896384 0-15.9935 7.197075-15.9935 15.9935 0 20.991469-16.493297 65.573351-29.388057 85.965064-7.796831 12.295003-27.688747 19.492078-34.685903 21.191387-8.596506 2.099147-13.894353 10.695653-11.895166 19.29216 1.799269 7.396994 8.296628 12.295003 15.593663 12.295003 1.199513 0 2.498984-0.099959 3.698497-0.399837 3.898416-0.899634 38.084522-9.796019 54.277941-35.185701 13.994313-22.091022 34.386025-73.270223 34.386025-103.158076 0-8.796425-7.197075-15.9935-15.9935-15.9935zM269.006841 784.681101c-22.091022 0-40.08371-17.892728-40.08371-40.08371V536.282052c0-22.091022 17.892728-40.08371 40.08371-40.08371 22.091022 0 40.08371 17.892728 40.083709 40.08371V744.69735c0 22.091022-17.992688 39.98375-40.083709 39.983751z" fill="#FFFFFF" p-id="2760"></path><path d="M637.4571 299.178412l1.199513-15.193825c2.299066-29.088178-20.591631-53.978063-49.77977-53.978063-17.792769 0-34.286066 9.496141-43.282409 24.889885l-6.297441 10.895571c17.892728 15.693622 44.282004 27.488828 74.769613 31.787082 7.99675 1.099553 15.793581 1.59935 23.390494 1.59935zM269.006841 784.681101c22.091022 0 40.08371-17.892728 40.083709-40.08371v-24.590007c-27.488828 2.598944-54.277941 7.596913-80.167419 14.893948v9.5961c0 22.290941 17.892728 40.183669 40.08371 40.183669zM350.573691 718.108156h-2.498984l-0.09996 7.396994c-0.299878 37.984563 17.193013 68.971969 55.177576 68.97197h196.420174c-71.071116-48.180419-156.736301-76.368963-248.998806-76.368964z" fill="#03BBFF" opacity=".5" p-id="2761"></path></svg>