<?xml version="1.0" standalone="no"?><!DOCTYPE svg PUBLIC "-//W3C//DTD SVG 1.1//EN" "http://www.w3.org/Graphics/SVG/1.1/DTD/svg11.dtd"><svg t="1582435000408" class="icon" viewBox="0 0 1024 1024" version="1.1" xmlns="http://www.w3.org/2000/svg" p-id="1712" xmlns:xlink="http://www.w3.org/1999/xlink" width="200" height="200"><defs><style type="text/css"></style></defs><path d="M426.542817 0.599756h170.530695C710.527404-1.899228 833.477436 32.886635 911.045912 112.954095c80.167419 77.568476 114.853323 200.518508 112.454298 313.972399v170.530696c2.399025 113.453892-32.286878 236.403924-112.454298 313.972399-77.568476 80.167419-200.518508 114.853323-313.9724 112.454298H426.542817c-113.453892 2.399025-236.403924-32.286878-313.9724-112.454298C32.402998 833.961073-2.282906 711.011041 0.116119 597.557149V427.026454C-2.282906 313.472603 32.402998 190.52257 112.570417 112.954095 190.138893 32.886635 313.088925-1.899228 426.542817 0.599756z" fill="#F42A68" p-id="1713"></path><path d="M112.570417 112.954095C36.90117 186.224317 1.715469 299.878128 0.116119 407.834254c137.943939 0 249.79848-111.954501 249.798481-249.89844 0-42.782613-10.795613-83.066241-29.687935-118.251942-40.583507 17.892728-77.568476 42.182857-107.656248 73.270223z" fill="#FFFFFF" opacity=".5" p-id="1714"></path><path d="M659.548122 771.586422H364.068207c-28.988219 0-52.478672-23.490453-52.478672-52.478672V343.760294L438.637901 403.835879c0 0.499797-0.099959 0.999594-0.099959 1.49939 0 40.883385 33.086553 73.969938 73.969938 73.969938s73.969938-33.086553 73.969938-73.969938v-0.699715l125.648936-59.37587v373.748107c-0.099959 28.988219-23.590413 52.578632-52.578632 52.578631z m-94.061773-131.24666c0-4.997969-4.098334-9.096303-9.096303-9.096303h-33.786269v-23.090616c0-0.399838-0.099959-0.799675-0.099959-1.099553h33.886228c4.997969 0 9.096303-4.098334 9.096303-9.096303V594.758287c0-4.997969-4.098334-9.096303-9.096303-9.096304h-21.091428l19.492078-19.492078c4.198294-4.198294 4.198294-10.995531 0-15.193825-4.198294-4.198294-10.995531-4.198294-15.193825 0l-28.7883 28.988219-28.388463-28.388463c-4.198294-4.198294-10.995531-4.198294-15.193825 0-4.198294 4.198294-4.198294 10.995531 0 15.193825l18.992281 18.992282h-18.892322c-4.997969 0-9.096303 4.098334-9.096303 9.096303v3.1987c0 4.997969 4.098334 9.096303 9.096303 9.096303h33.886229c0 0.399838-0.099959 0.699716-0.09996 1.099553v23.090616h-33.786269c-4.997969 0-9.096303 4.098334-9.096303 9.096303v3.1987c0 4.997969 4.098334 9.096303 9.096303 9.096304h33.786269v44.581881c0 4.997969 4.098334 9.096303 9.096304 9.096303h3.298659c4.997969 0 9.096303-4.098334 9.096303-9.096303V652.734725h33.786269c4.997969 0 9.096303-4.098334 9.096303-9.096304v-3.298659z m-52.978469-308.974431c-32.986594 0-60.975219 21.691185-70.47136 51.579038l-130.446985-61.674935v-15.793581c0-28.988219 23.490453-52.478672 52.478672-52.478673h295.479915c28.988219 0 52.478672 23.490453 52.478672 52.478673v17.193012l-128.847635 60.97522c-9.296222-30.287691-37.384807-52.278754-70.671279-52.278754z" fill="#FFFFFF" p-id="1715"></path><path d="M543.595246 412.632304h-25.389681v25.389681c0 3.498578-2.798863 6.3974-6.3974 6.3974s-6.3974-2.798863-6.397401-6.3974v-25.389681h-25.48964c-3.498578 0-6.3974-2.798863-6.3974-6.3974s2.798863-6.3974 6.3974-6.3974h25.48964v-25.489641c0-3.498578 2.798863-6.3974 6.397401-6.3974s6.3974 2.798863 6.3974 6.3974V399.837504h25.389681c3.498578 0 6.3974 2.798863 6.3974 6.3974s-2.898822 6.3974-6.3974 6.3974z" fill="#FFFFFF" p-id="1716"></path><path d="M630.659862 737.500275c0 11.695247 1.199513 23.090616 3.398619 34.086147h25.489641c28.988219 0 52.478672-23.490453 52.478672-52.478672V591.759505c-48.780175 30.187732-81.366932 84.165794-81.366932 145.74077z" fill="#F42A68" opacity=".4" p-id="1717"></path></svg>