<?xml version="1.0" standalone="no"?><!DOCTYPE svg PUBLIC "-//W3C//DTD SVG 1.1//EN" "http://www.w3.org/Graphics/SVG/1.1/DTD/svg11.dtd"><svg t="1582435099019" class="icon" viewBox="0 0 1024 1024" version="1.1" xmlns="http://www.w3.org/2000/svg" p-id="2160" xmlns:xlink="http://www.w3.org/1999/xlink" width="200" height="200"><defs><style type="text/css"></style></defs><path d="M426.542817 0.599756h170.530695C710.527404-1.899228 833.477436 32.886635 911.045912 112.954095c80.167419 77.568476 114.853323 200.518508 112.454298 313.972399v170.530696c2.399025 113.453892-32.286878 236.403924-112.454298 313.972399-77.568476 80.167419-200.518508 114.853323-313.9724 112.454298H426.542817c-113.453892 2.399025-236.403924-32.286878-313.9724-112.454298C32.402998 833.961073-2.282906 711.011041 0.116119 597.557149V427.026454C-2.282906 313.472603 32.402998 190.52257 112.570417 112.954095 190.138893 32.886635 313.088925-1.899228 426.542817 0.599756z" fill="#0FE689" p-id="2161"></path><path d="M112.570417 112.954095C36.90117 186.224317 1.715469 299.878128 0.116119 407.834254c137.943939 0 249.79848-111.954501 249.798481-249.89844 0-42.782613-10.795613-83.066241-29.687935-118.251942-40.583507 17.892728-77.568476 42.182857-107.656248 73.270223z" fill="#FFFFFF" opacity=".5" p-id="2162"></path><path d="M724.02192 667.728631L518.405483 786.38041c-30.287691 17.492891-68.971969 7.097116-86.46486-23.090616L276.403834 493.899276c-9.196263-15.893541-10.995531-34.985782-4.997968-52.278753l39.683872-169.431142c10.295816-29.787894 40.983344-47.480704 71.97075-41.483141l165.832605 50.679403c17.992688 3.498578 33.486391 14.594069 42.582694 30.38765l155.636748 269.490478c17.492891 30.287691 7.097116 68.971969-23.090615 86.46486zM449.733392 350.957369c-10.895572-18.892322-35.085741-25.389681-54.078022-14.49411-18.892322 10.895572-25.389681 35.085741-14.49411 54.078023 10.895572 18.892322 35.085741 25.389681 54.078023 14.494109 18.892322-10.895572 25.389681-35.085741 14.494109-54.078022z m197.519727 278.886658c-4.398213-7.596913-14.094272-10.195856-21.591225-5.797643l-95.961001 55.377494c-7.596913 4.398213-10.195856 14.094272-5.797644 21.591225 4.398213 7.596913 14.094272 10.195856 21.591225 5.797644l95.961001-55.377494c7.596913-4.398213 10.195856-14.094272 5.797644-21.591226z" fill="#FFFFFF" p-id="2163"></path><path d="M517.605808 742.998041c-52.178794-11.995125-47.880541-9.995938-117.852104-89.963438-20.391713-23.390494-37.584725-34.186107-53.478266-38.784238l85.765145 148.539632c17.492891 30.287691 56.177169 40.583507 86.46486 23.090616l117.752145-67.972375c-35.985375 6.697278-64.773676 37.484766-118.65178 25.089803z" fill="#0FE689" opacity=".5" p-id="2164"></path></svg>