<?xml version="1.0" standalone="no"?><!DOCTYPE svg PUBLIC "-//W3C//DTD SVG 1.1//EN" "http://www.w3.org/Graphics/SVG/1.1/DTD/svg11.dtd"><svg t="1587257676708" class="icon" viewBox="0 0 1071 1024" version="1.1" xmlns="http://www.w3.org/2000/svg" p-id="6265" xmlns:xlink="http://www.w3.org/1999/xlink" width="209.1796875" height="200"><defs><style type="text/css"></style></defs><path d="M469.504 811.52c-150.528-5.632-268.8-135.168-261.632-285.696 2.56-57.344 23.04-111.616 58.88-156.672 4.608-6.144 13.312-8.704 20.48-5.632 11.776 4.608 15.36 18.944 7.68 28.16-45.568 56.832-61.952 129.536-45.056 204.8 17.408 77.312 74.24 141.312 150.016 166.4 164.352 54.784 317.44-66.56 317.44-223.232C716.8 408.064 610.816 302.08 480.256 302.08c-37.376 0-73.216 8.192-105.984 25.088-7.68 4.096-17.408 2.048-22.528-4.608-7.168-9.216-3.584-22.016 6.144-27.136 38.4-19.456 79.872-29.184 122.88-29.184 150.528 0 272.384 122.368 272.384 272.384-0.512 154.112-128.512 278.528-283.648 272.896z" fill="#ff9901" p-id="6266"></path><path d="M736.768 741.376c-5.12 0-10.752-2.56-14.336-7.168-4.608-6.144-3.584-16.384 1.024-22.528 40.96-51.712 62.464-114.176 62.464-180.224 0-159.744-129.536-289.792-289.28-290.304-8.704 0-16.896-5.632-18.944-14.336-2.048-11.264 6.656-21.504 17.408-21.504 180.224 0 326.656 146.432 326.656 326.656 0 74.752-24.576 144.896-71.168 203.264-3.584 3.584-8.704 6.144-13.824 6.144z" fill="#ff9901" p-id="6267"></path><path d="M348.672 437.76l-3.072-23.552c36.864-3.072 73.728-8.192 110.08-14.336l4.608 24.064c-14.848 3.072-29.696 5.632-44.544 7.68v41.984h43.52V496.64h-43.52v185.344h-27.648V496.64h-48.128v-23.552h48.128v-38.912c-13.312 1.536-26.624 2.56-39.424 3.584z m13.824 216.576l-21.504-3.072c6.656-47.104 10.24-93.184 10.24-137.216h21.504c-0.512 46.592-4.096 93.184-10.24 140.288z m77.824 0c-6.656-43.008-9.728-89.6-9.728-140.8h20.992c0 48.64 3.584 94.72 10.752 137.216l-22.016 3.584z m39.936 28.16l-31.232-5.12c19.456-33.28 34.304-65.024 44.032-95.232h31.744c-11.264 34.304-26.112 68.096-44.544 100.352z m19.968-125.44c-21.504-0.512-32.256-11.776-33.28-32.768V439.808c0.512-22.528 11.776-33.792 33.792-34.304H583.68c20.992 1.024 32.256 12.288 33.28 34.304V522.24c-0.512 22.528-11.264 33.792-32.256 34.304H500.224z m-3.072-114.688v78.848c1.024 6.656 5.12 10.752 12.8 11.776h64.512c7.68-1.024 11.776-4.608 12.288-11.776V442.368c-0.512-7.68-5.12-11.776-12.8-12.8H509.44c-7.168 1.024-11.264 5.12-12.288 12.8z m103.424 240.128c-16.384-29.696-31.232-62.976-44.544-100.352h31.232c11.264 30.72 26.112 62.464 44.544 95.232l-31.232 5.12z" fill="#ff9901" p-id="6268"></path></svg>