<?xml version="1.0" standalone="no"?><!DOCTYPE svg PUBLIC "-//W3C//DTD SVG 1.1//EN" "http://www.w3.org/Graphics/SVG/1.1/DTD/svg11.dtd"><svg t="1583382283864" class="icon" viewBox="0 0 1024 1024" version="1.1" xmlns="http://www.w3.org/2000/svg" p-id="2447" xmlns:xlink="http://www.w3.org/1999/xlink" width="200" height="200"><defs><style type="text/css"></style></defs><path d="M518.392 952.602c-7.427 0-14.498-2.364-20.446-6.836-68.015-51.127-232.042-178.307-286.087-254.875-44.847-63.54-68.552-138.413-68.552-216.523 0-50.718 9.913-99.905 29.464-146.194 18.888-44.721 45.933-84.89 80.383-119.389 34.447-34.497 74.553-61.579 119.204-80.491 46.212-19.574 95.316-29.499 145.947-29.499 100.302 0 194.461 38.906 265.131 109.552 70.68 70.656 109.7 164.896 109.871 265.36 0.128 74.193-21.306 145.967-61.983 207.565-53.421 80.889-222.403 211.952-292.576 264.547-5.922 4.436-12.961 6.783-20.356 6.783z" fill="#FFFFFF" p-id="2448"></path><path d="M518.305 123.794c47.366 0 93.233 9.218 136.326 27.399 41.642 17.568 79.031 42.746 111.13 74.834 32.104 32.093 57.316 69.499 74.937 111.18 18.239 43.143 27.528 89.082 27.608 136.543 0.12 69.264-19.883 136.26-57.844 193.743-35.566 53.852-142.747 150.42-286.706 258.319a8.887 8.887 0 0 1-5.364 1.79 8.97 8.97 0 0 1-5.427-1.821c-37.997-28.562-94.806-72.42-149.665-119.161-81.187-69.172-116.06-108.953-131.017-130.143-41.854-59.301-63.977-129.189-63.977-202.109 0-47.358 9.25-93.273 27.494-136.468 17.63-41.742 42.878-79.24 75.043-111.451 32.16-32.206 69.595-57.486 111.264-75.136 43.112-18.261 88.935-27.519 136.198-27.519m0-50c-220.915 0-399.998 179.343-399.998 400.574 0 86 27.063 165.675 73.127 230.941 55.694 78.904 218.983 205.937 291.489 260.44a58.938 58.938 0 0 0 35.471 11.853 58.848 58.848 0 0 0 35.348-11.779c74.101-55.539 243.153-187.057 298.443-270.776 41.91-63.463 66.263-139.572 66.122-221.384-0.378-221.503-178.813-399.869-400.002-399.869z" fill="#f04d4d" p-id="2449" data-spm-anchor-id="a313x.7781069.0.i2" class="selected"></path><path d="M518.309 272.556c105.65 0 191.302 85.65 191.302 191.304 0 105.656-85.652 191.306-191.302 191.306-105.656 0-191.308-85.65-191.308-191.306 0.001-105.653 85.653-191.304 191.308-191.304z" fill="#f04d4d" p-id="2450" data-spm-anchor-id="a313x.7781069.0.i0" class="selected"></path></svg>