<?xml version="1.0" standalone="no"?><!DOCTYPE svg PUBLIC "-//W3C//DTD SVG 1.1//EN" "http://www.w3.org/Graphics/SVG/1.1/DTD/svg11.dtd"><svg t="1583482658603" class="icon" viewBox="0 0 1024 1024" version="1.1" xmlns="http://www.w3.org/2000/svg" p-id="3484" xmlns:xlink="http://www.w3.org/1999/xlink" width="200" height="200"><defs><style type="text/css"></style></defs><path d="M516.39 836.7l-270.84-261 294.8-278c72.33-72.34 190.7-72.34 263 0 72.34 72.33 72.34 190.7 0 263z" fill="#f04d4d" p-id="3485" data-spm-anchor-id="a313x.7781069.0.i1" class=""></path><path d="M511 863.53a13.65 13.65 0 0 1-9.32-3.65c-10.29-9.47-251.49-232.68-319.88-324.35-66.44-89-69.93-182.81-10.1-271.25 78.56-116.13 220-97.7 225.93-96.82a13.73 13.73 0 0 1-3.83 27.2c-1.3-0.24-130.53-16.74-199.35 85-53.44 79-50.28 159.53 9.38 239.45s262 269.91 307.4 312.19c47.08-41.34 259-229.22 316.35-310.77 32.69-46.57 71-150.36 7.46-244.11-56.76-83.62-118.47-89.28-165.91-84.93-39.76 3.7-105.71 28.73-154.84 69.4-42.57 35.24-156.7 155.64-157.85 156.84a13.73 13.73 0 1 1-19.94-18.88c4.73-5 116.43-122.81 160.27-159.1 55.89-46.28 127.21-71.65 169.81-75.62 50.7-4.67 125.62 0.21 191.18 96.89 72 106.09 29 223-7.7 275.28C783.89 630.52 530.71 850.84 520 860.18a13.79 13.79 0 0 1-9 3.35z" fill="#d81e06" p-id="3486" data-spm-anchor-id="a313x.7781069.0.i2" class=""></path><path d="M799.5 458.73h-0.82a14.38 14.38 0 0 1-13.53-15.15c0-0.42 2.19-44.32-15.59-81.24-12.17-25.25-46-50-58-57.38a14.37 14.37 0 0 1 15.1-24.46c2.05 1.26 50.48 31.45 68.76 69.38 21.08 43.74 18.52 93.26 18.39 95.33a14.34 14.34 0 0 1-14.31 13.52z" fill="#d81e06" p-id="3487" data-spm-anchor-id="a313x.7781069.0.i3" class=""></path></svg>