<?xml version="1.0" standalone="no"?><!DOCTYPE svg PUBLIC "-//W3C//DTD SVG 1.1//EN" "http://www.w3.org/Graphics/SVG/1.1/DTD/svg11.dtd"><svg t="1583378212317" class="icon" viewBox="0 0 1024 1024" version="1.1" xmlns="http://www.w3.org/2000/svg" p-id="2441" xmlns:xlink="http://www.w3.org/1999/xlink" width="200" height="200"><defs><style type="text/css"></style></defs><path d="M701.8 958.1H322.2c-41.8 0-80.7-22.5-101.6-58.7L30.8 570.7c-20.9-36.2-20.9-81.2 0-117.4l189.8-328.7c20.9-36.2 59.8-58.7 101.6-58.7h379.6c41.8 0 80.7 22.5 101.6 58.7l189.8 328.7c20.9 36.2 20.9 81.2 0 117.4L803.4 899.4c-20.9 36.2-59.8 58.7-101.6 58.7zM322.2 125.9c-20.4 0-39.5 11-49.7 28.7L82.7 483.3c-10.2 17.7-10.2 39.7 0 57.4l189.8 328.7c10.2 17.7 29.2 28.7 49.7 28.7h379.6c20.4 0 39.5-11 49.7-28.7l189.8-328.7c10.2-17.7 10.2-39.7 0-57.4L751.5 154.6c-10.2-17.7-29.2-28.7-49.7-28.7H322.2z" fill="#ffffff" p-id="2442"></path><path d="M512 673c-88.8 0-161-72.2-161-161s72.2-161 161-161 161 72.2 161 161-72.2 161-161 161z m0-262c-55.7 0-101 45.3-101 101s45.3 101 101 101 101-45.3 101-101-45.3-101-101-101z" fill="#ffffff" p-id="2443"></path></svg>