<?xml version="1.0" standalone="no"?><!DOCTYPE svg PUBLIC "-//W3C//DTD SVG 1.1//EN" "http://www.w3.org/Graphics/SVG/1.1/DTD/svg11.dtd"><svg t="1583473228628" class="icon" viewBox="0 0 1024 1024" version="1.1" xmlns="http://www.w3.org/2000/svg" p-id="1132" xmlns:xlink="http://www.w3.org/1999/xlink" width="200" height="200"><defs><style type="text/css"></style></defs><path d="M93.323636 433.570909l418.909091 494.545455-195.025454-494.545455H93.323636zM512.232727 928.116364l418.909091-494.545455h-224.116363l-194.792728 494.545455z" fill="#73B4FF" p-id="1133"></path><path d="M318.138182 433.570909l194.094545-197.818182-195.025454 197.818182h0.930909zM707.025455 433.570909l-194.792728-197.818182 193.629091 197.818182h1.163637z" fill="#87D3FF" p-id="1134"></path><path d="M705.861818 433.570909l-193.629091-197.818182-194.094545 197.818182h-0.930909l195.025454 494.545455 194.792728-494.545455h-1.163637z" fill="#73B4FF" p-id="1135"></path><path d="M705.861818 433.570909l-193.629091-197.818182-194.094545 197.818182h-0.930909l195.025454 494.545455 194.792728-494.545455h-1.163637z" fill="#1474E4" p-id="1136"></path><path d="M512.232727 235.752727l194.792728 197.818182h224.116363l-196.421818-197.818182h-222.487273zM512.232727 235.752727h-222.72l-196.189091 197.818182h223.883637l195.025454-197.818182z" fill="#87D3FF" p-id="1137"></path></svg>