<?xml version="1.0" standalone="no"?><!DOCTYPE svg PUBLIC "-//W3C//DTD SVG 1.1//EN" "http://www.w3.org/Graphics/SVG/1.1/DTD/svg11.dtd"><svg t="1583473297483" class="icon" viewBox="0 0 1024 1024" version="1.1" xmlns="http://www.w3.org/2000/svg" p-id="1415" xmlns:xlink="http://www.w3.org/1999/xlink" width="200" height="200"><defs><style type="text/css"></style></defs><path d="M929.047273 407.272727l-104.261818-14.894545-23.272728-3.490909-108.450909-16.523637a36.770909 36.770909 0 0 1-23.272727-12.567272 28.16 28.16 0 0 1-5.585455-8.145455l-4.189091-8.378182L558.545455 139.636364a18.618182 18.618182 0 0 0-33.512728 0l-101.469091 205.498181-4.189091 8.378182a41.890909 41.890909 0 0 1-5.585454 8.145455 36.770909 36.770909 0 0 1-23.272727 12.567273l-108.683637 15.592727-23.272727 3.490909-102.632727 13.963636a18.850909 18.850909 0 0 0-10.472728 32.116364l80.756364 78.661818v-104.494545a11.869091 11.869091 0 0 1 19.083636-9.076364l112.872728 88.203636 4.654545 3.723637a25.367273 25.367273 0 0 0 5.352727 3.258182 23.272727 23.272727 0 0 0 16.058182 0l65.629091-20.48 13.963637-4.421819 62.836363-19.781818a11.636364 11.636364 0 0 1 14.429091 15.36l-50.967273 139.636364a23.272727 23.272727 0 0 0 2.792728 21.643636l17.454545 23.272727 11.636364 16.756364 57.483636 80.756364a11.170909 11.170909 0 0 1 0 13.730909 10.472727 10.472727 0 0 1-9.541818 4.654545h-13.963636L421.236364 768a23.272727 23.272727 0 0 0-19.781819 9.541818l-80.523636 108.683637-5.352727 7.214545 17.92-9.541818 191.301818-100.538182a37.469091 37.469091 0 0 1 35.141818 0L751.243636 884.363636l19.781819 10.24a16.989091 16.989091 0 0 0 16.98909 0 17.92 17.92 0 0 0 10.24-19.549091l-26.763636-156.16-5.585454-32.116363-7.912728-46.545455A37.469091 37.469091 0 0 1 768 605.090909l170.589091-166.4a18.850909 18.850909 0 0 0-9.541818-31.418182zM290.443636 888.552727l-3.723636-13.498182a17.687273 17.687273 0 0 0 3.723636 13.498182z" fill="#73B4FF" p-id="1416"></path><path d="M313.483636 717.730909l5.352728-31.883636 8.145454-46.545455a37.469091 37.469091 0 0 0-10.705454-34.210909l-90.065455-87.04v44.683636a29.323636 29.323636 0 0 1 0 6.283637 23.272727 23.272727 0 0 1-9.309091 13.032727l-58.414545 38.4-12.101818 7.912727-54.923637 37.003637a11.869091 11.869091 0 0 0 2.792727 20.945454l141.498182 46.545455a23.272727 23.272727 0 0 1 15.127273 15.825454l8.145455 28.625455 5.585454 19.549091 23.272727 77.265454zM296.494545 893.672727a20.945455 20.945455 0 0 1-6.050909-5.12l1.396364 4.654546a11.403636 11.403636 0 0 0 10.938182 8.378182 11.170909 11.170909 0 0 0 9.774545-4.654546l3.025455-3.956364h-1.629091a17.92 17.92 0 0 1-17.454546 0.698182z" fill="#87D3FF" p-id="1417"></path><path d="M401.454545 777.076364a23.272727 23.272727 0 0 1 19.781819-9.076364l135.214545 4.887273h13.963636a10.472727 10.472727 0 0 0 9.541819-4.654546 11.170909 11.170909 0 0 0 0-13.730909L522.938182 674.909091l-11.636364-16.756364-17.454545-23.272727a23.272727 23.272727 0 0 1-2.792728-21.643636l50.967273-139.636364a11.636364 11.636364 0 0 0-14.429091-15.36l-62.836363 19.781818-13.963637 4.421818-65.629091 20.48a23.272727 23.272727 0 0 1-16.058181 0 25.367273 25.367273 0 0 1-5.352728-3.258181l-4.654545-3.723637-112.872727-88.203636a11.869091 11.869091 0 0 0-19.083637 9.076363v104.494546l89.134546 83.781818a37.469091 37.469091 0 0 1 10.705454 33.28l-8.145454 46.545455-5.352728 31.883636-26.763636 156.392727 3.723636 13.498182a20.945455 20.945455 0 0 0 6.050909 5.12 17.92 17.92 0 0 0 17.454546 0h1.629091l5.352727-7.214545z" fill="#73B4FF" p-id="1418"></path><path d="M401.454545 777.076364a23.272727 23.272727 0 0 1 19.781819-9.076364l135.214545 4.887273h13.963636a10.472727 10.472727 0 0 0 9.541819-4.654546 11.170909 11.170909 0 0 0 0-13.730909L522.938182 674.909091l-11.636364-16.756364-17.454545-23.272727a23.272727 23.272727 0 0 1-2.792728-21.643636l50.967273-139.636364a11.636364 11.636364 0 0 0-14.429091-15.36l-62.836363 19.781818-13.963637 4.421818-65.629091 20.48a23.272727 23.272727 0 0 1-16.058181 0 25.367273 25.367273 0 0 1-5.352728-3.258181l-4.654545-3.723637-112.872727-88.203636a11.869091 11.869091 0 0 0-19.083637 9.076363v104.494546l89.134546 83.781818a37.469091 37.469091 0 0 1 10.705454 33.28l-8.145454 46.545455-5.352728 31.883636-26.763636 156.392727 3.723636 13.498182a20.945455 20.945455 0 0 0 6.050909 5.12 17.92 17.92 0 0 0 17.454546 0h1.629091l5.352727-7.214545z" fill="#1474E4" p-id="1419"></path></svg>