<?xml version="1.0" standalone="no"?><!DOCTYPE svg PUBLIC "-//W3C//DTD SVG 1.1//EN" "http://www.w3.org/Graphics/SVG/1.1/DTD/svg11.dtd"><svg t="1583473557063" class="icon" viewBox="0 0 1024 1024" version="1.1" xmlns="http://www.w3.org/2000/svg" p-id="1556" xmlns:xlink="http://www.w3.org/1999/xlink" width="200" height="200"><defs><style type="text/css"></style></defs><path d="M884.363636 372.363636h-48.872727l36.305455 79.592728a37.469091 37.469091 0 0 1-18.618182 49.570909L325.818182 741.236364a37.236364 37.236364 0 0 1-49.338182-18.385455L139.636364 422.167273A37.469091 37.469091 0 0 1 158.021818 372.363636h-16.756363A47.941818 47.941818 0 0 0 93.090909 421.003636v424.96a47.941818 47.941818 0 0 0 47.941818 47.941819H884.363636a47.941818 47.941818 0 0 0 46.545455-47.941819V421.003636A48.174545 48.174545 0 0 0 884.363636 372.363636z" fill="#73B4FF" p-id="1557"></path><path d="M734.021818 152.203636a37.236364 37.236364 0 0 0-49.338182-18.385454L158.487273 372.363636h674.909091z" fill="#87D3FF" p-id="1558"></path><path d="M139.636364 422.167273l136.843636 300.683636a37.236364 37.236364 0 0 0 49.338182 18.385455l525.963636-239.010909a37.469091 37.469091 0 0 0 18.618182-49.57091L834.327273 372.363636H158.021818A37.469091 37.469091 0 0 0 139.636364 422.167273z" fill="#73B4FF" p-id="1559"></path><path d="M139.636364 422.167273l136.843636 300.683636a37.236364 37.236364 0 0 0 49.338182 18.385455l525.963636-239.010909a37.469091 37.469091 0 0 0 18.618182-49.57091L834.327273 372.363636H158.021818A37.469091 37.469091 0 0 0 139.636364 422.167273z" fill="#1474E4" p-id="1560"></path></svg>