<?xml version="1.0" standalone="no"?><!DOCTYPE svg PUBLIC "-//W3C//DTD SVG 1.1//EN" "http://www.w3.org/Graphics/SVG/1.1/DTD/svg11.dtd"><svg t="1585111701272" class="icon" viewBox="0 0 1024 1024" version="1.1" xmlns="http://www.w3.org/2000/svg" p-id="2229" xmlns:xlink="http://www.w3.org/1999/xlink" width="200" height="200"><defs><style type="text/css"></style></defs><path d="M306.176 461.824c12.8 0 25.6 5.12 35.84 14.848L757.76 888.32c19.968 19.968 19.968 51.712 0.512 71.68s-51.712 19.968-71.68 0.512L270.848 548.864a50.842 50.842 0 0 1-0.512-71.68c9.216-10.752 22.528-15.36 35.84-15.36z" p-id="2230" fill="#ffffff"></path><path d="M717.312 46.08c12.8 0 25.6 5.12 35.84 14.848a50.837 50.837 0 0 1 0.512 71.68L342.016 548.352a50.842 50.842 0 0 1-71.68 0.512 50.842 50.842 0 0 1-0.512-71.68L681.472 61.44c9.728-10.24 23.04-15.36 35.84-15.36z" p-id="2231" fill="#ffffff"></path></svg>