<?xml version="1.0" standalone="no"?><!DOCTYPE svg PUBLIC "-//W3C//DTD SVG 1.1//EN" "http://www.w3.org/Graphics/SVG/1.1/DTD/svg11.dtd"><svg t="1585181475614" class="icon" viewBox="0 0 1024 1024" version="1.1" xmlns="http://www.w3.org/2000/svg" p-id="3942" xmlns:xlink="http://www.w3.org/1999/xlink" width="200" height="200"><defs><style type="text/css"></style></defs><path d="M857.8816 907.86816a41.34912 41.34912 0 0 0 41.04192-46.99648l-42.79808-306.32448h-244.83328a214.49216 214.49216 0 0 0-212.2752 181.8624l-26.112 171.45856h484.99712z" fill="#F4CA1C" p-id="3943"></path><path d="M941.2608 861.29664L866.73408 325.48352a84.79744 84.79744 0 0 0-83.59424-72.82688H721.92a209.57696 209.57696 0 0 0-416.512 0H247.63904a83.968 83.968 0 0 0-83.456 71.79776L82.88768 860.27264A84.48 84.48 0 0 0 166.33344 957.44h691.33312a84.48 84.48 0 0 0 83.59424-96.14336zM513.65376 145.75104a130.70848 130.70848 0 0 1 128.26112 106.9056h-256.512a130.70848 130.70848 0 0 1 128.25088-106.9056z m348.0064 730.68032a5.08416 5.08416 0 0 1-3.9936 1.8176H166.33344a5.2992 5.2992 0 0 1-5.23776-6.0928l81.31072-535.808a5.26336 5.26336 0 0 1 5.23264-4.5056h56.37632v51.47648a39.552 39.552 0 1 0 79.10912 0V331.84768h261.05856v51.47136a39.552 39.552 0 1 0 79.104 0V331.84768h59.8528a5.31968 5.31968 0 0 1 5.24288 4.56704l74.52672 535.80288a5.12 5.12 0 0 1-1.24928 4.21376z" fill="#595BB3" p-id="3944"></path></svg>