<?xml version="1.0" standalone="no"?><!DOCTYPE svg PUBLIC "-//W3C//DTD SVG 1.1//EN" "http://www.w3.org/Graphics/SVG/1.1/DTD/svg11.dtd"><svg t="1585201936832" class="icon" viewBox="0 0 1024 1024" version="1.1" xmlns="http://www.w3.org/2000/svg" p-id="2925" xmlns:xlink="http://www.w3.org/1999/xlink" width="200" height="200"><defs><style type="text/css"></style></defs><path d="M512 906.949c-20.682 0-41.356-5.323-59.802-15.974l-238.5-137.698c-36.887-21.296-59.802-60.985-59.802-103.579V374.301c0-42.593 22.915-82.282 59.802-103.579l238.501-137.699c36.887-21.296 82.716-21.296 119.603 0l238.501 137.699c36.887 21.297 59.801 60.986 59.801 103.579v275.397c0 42.594-22.914 82.283-59.801 103.579L571.802 890.976c-18.442 10.647-39.125 15.973-59.802 15.973z m0-729.924c-10.305 0-20.61 2.653-29.801 7.96L243.698 322.684c-18.382 10.613-29.802 30.392-29.802 51.618v275.397c0 21.227 11.419 41.005 29.802 51.618l238.501 137.698c18.382 10.613 41.22 10.613 59.603 0l238.501-137.698c18.382-10.613 29.801-30.392 29.801-51.618V374.301c0-21.226-11.419-41.004-29.801-51.618L541.802 184.985c-9.192-5.306-19.496-7.96-29.802-7.96z" p-id="2926" fill="#ffffff"></path><path d="M610.67 399.658c-38.236 38.166-76.367 76.057-114.88 114.293V399.658h-92.424c0.277 7.579 0.277 15.433 0.588 23.045h22.457v252.255c91.837-91.906 183.396-183.465 275.231-275.301H610.67z m0 0" p-id="2927" fill="#ffffff"></path></svg>