<?xml version="1.0" standalone="no"?><!DOCTYPE svg PUBLIC "-//W3C//DTD SVG 1.1//EN" "http://www.w3.org/Graphics/SVG/1.1/DTD/svg11.dtd"><svg t="1580959048139" class="icon" viewBox="0 0 1024 1024" version="1.1" xmlns="http://www.w3.org/2000/svg" p-id="1237" xmlns:xlink="http://www.w3.org/1999/xlink" width="200" height="200"><defs><style type="text/css"></style></defs><path d="M860.3 785.4c-27.5 0-49.8-22.3-49.8-49.8s22.3-49.8 49.8-49.8c22 0 24.9-13.3 24.9-24.9 0-27.2-18.1-49.8-24.9-49.8h-74.6c-27.5 0-49.8-22.3-49.8-49.8s22.3-49.8 49.8-49.8h74.6c74.4 0 124.4 77.2 124.4 149.3s-52.3 124.6-124.4 124.6zM599.1 685.9c48 0 87.1 39.1 87.1 87.1 0 48-39.1 87.1-87.1 87.1H225.9c-48 0-87.1-39.1-87.1-87.1 0-48 39.1-87.1 87.1-87.1h373.2m0-99.5H225.9c-103.1 0-186.6 83.5-186.6 186.6 0 103 83.5 186.6 186.6 186.6h373.2c103 0 186.6-83.5 186.6-186.6s-83.6-186.6-186.6-186.6z" fill="#4585F5" p-id="1238"></path><path d="M400 399.8c-47.4 0-95.4-21.4-95.4-62.2 0-20.6 16.7-37.3 37.3-37.3 14.7 0 27.4 8.5 33.5 20.8 11 3.9 38.2 3.9 49.2 0 6.1-12.3 18.8-20.8 33.5-20.8 20.6 0 37.3 16.7 37.3 37.3 0 40.8-48 62.2-95.4 62.2z" fill="#29CCB6" p-id="1239"></path><path d="M741.3 462c-8.8 0-17.7-0.7-26.4-2.1-27.1-4.4-45.6-29.9-41.2-57.1 4.4-27.1 29.9-45.7 57.1-41.2 3.4 0.6 6.9 0.9 10.5 0.9 38.2 0 69.2-33.5 69.2-74.6s-31.1-74.6-69.2-74.6c-5.8 0-11.6 0.8-17.1 2.3-26.4 7.3-53.9-8.3-61.2-34.8-7.3-26.5 8.3-53.9 34.8-61.2 14.1-3.9 28.7-5.8 43.4-5.8 93 0 168.7 78.1 168.7 174.1S834.4 462 741.3 462zM400.1 163.5c75.4 0 136.8 61.4 136.8 136.8s-61.4 136.8-136.8 136.8-136.8-61.4-136.8-136.8 61.3-136.8 136.8-136.8m0-99.6c-130.5 0-236.3 105.8-236.3 236.3s105.8 236.3 236.3 236.3 236.3-105.8 236.3-236.3S530.6 63.9 400.1 63.9z" fill="#4585F5" p-id="1240"></path></svg>