<?xml version="1.0" standalone="no"?><!DOCTYPE svg PUBLIC "-//W3C//DTD SVG 1.1//EN" "http://www.w3.org/Graphics/SVG/1.1/DTD/svg11.dtd"><svg t="1580882491824" class="icon" viewBox="0 0 1024 1024" version="1.1" xmlns="http://www.w3.org/2000/svg" p-id="1410" xmlns:xlink="http://www.w3.org/1999/xlink" width="200" height="200"><defs><style type="text/css"></style></defs><path d="M426.542817 0.599756h170.530695C710.527404-1.899228 833.477436 32.886635 911.045912 112.954095c80.167419 77.568476 114.853323 200.518508 112.454298 313.972399v170.530696c2.399025 113.453892-32.286878 236.403924-112.454298 313.972399-77.568476 80.167419-200.518508 114.853323-313.9724 112.454298H426.542817c-113.453892 2.399025-236.403924-32.286878-313.9724-112.454298C32.402998 833.961073-2.282906 711.011041 0.116119 597.557149V427.026454C-2.282906 313.472603 32.402998 190.52257 112.570417 112.954095 190.138893 32.886635 313.088925-1.899228 426.542817 0.599756z" fill="#775CFF" p-id="1411"></path><path d="M112.570417 112.954095C36.90117 186.224317 1.715469 299.878128 0.116119 407.834254c137.943939 0 249.79848-111.954501 249.798481-249.89844 0-42.782613-10.795613-83.066241-29.687935-118.251942-40.583507 17.892728-77.568476 42.182857-107.656248 73.270223z" fill="#FFFFFF" opacity=".5" p-id="1412"></path><path d="M631.759416 802.773748H391.856913c-87.064616 0-146.140608-90.763113-112.654216-173.129639l52.87851-129.947189c22.590819-55.577413 70.47136-95.061366 126.54857-106.956532h-17.592851c-37.284847 0-67.472579-44.182044-67.472578-98.659904 0-59.975626 47.080866-93.861854 79.567663-57.276723l26.689153 29.987813c17.792769 19.991875 42.482735 19.991875 60.275504 0l26.689153-29.987813c32.486797-36.585132 79.567663-2.698903 79.567663 57.276723 0 54.47786-30.187732 98.659904-67.472578 98.659904h-13.794394c56.07721 11.895166 103.957751 51.379119 126.54857 106.956532l52.87851 129.947189c33.386432 82.366526-25.68956 173.129639-112.754176 173.129639z m-41.882979-234.904534l-46.281191-0.199918c-4.598131 0-8.696466-2.898822-10.295816-7.297035l-16.393337-44.182044c-3.698497-9.995938-17.59285-9.696059-20.89151 0.499797l-14.594069 44.7818c-1.499391 4.498172-5.397806 7.596913-9.995937 7.796832l-46.181232 2.199106c-10.495734 0.499797-14.49411 14.294191-5.997563 20.591631l37.184888 27.688747c3.698497 2.798863 5.397806 7.696872 4.198294 12.195044l-12.195044 45.281598c-2.798863 10.295816 8.696466 18.492485 17.193013 12.295003l37.784644-27.588788c3.698497-2.698903 8.696466-2.798863 12.494922-0.299878l38.884197 25.989438c8.796425 5.897603 19.891916-2.798863 16.693216-12.994719l-14.094272-44.681841c-1.399431-4.498172 0-9.496141 3.698497-12.394963l35.985375-29.288097c7.896791-6.797238 3.398619-20.391713-7.197075-20.391713z" fill="#FFFFFF" p-id="1413"></path><path d="M602.671237 802.37391H631.759416c87.064616 0 146.140608-90.763113 112.654216-173.129639l-8.396587-20.691591c-70.47136 39.783832-121.050804 110.55507-133.345808 193.82123z" fill="#775CFF" opacity=".5" p-id="1414"></path></svg>