<?xml version="1.0" standalone="no"?><!DOCTYPE svg PUBLIC "-//W3C//DTD SVG 1.1//EN" "http://www.w3.org/Graphics/SVG/1.1/DTD/svg11.dtd"><svg t="1580882548733" class="icon" viewBox="0 0 1024 1024" version="1.1" xmlns="http://www.w3.org/2000/svg" p-id="1559" xmlns:xlink="http://www.w3.org/1999/xlink" width="200" height="200"><defs><style type="text/css"></style></defs><path d="M426.542817 0.599756h170.530695C710.527404-1.899228 833.477436 32.886635 911.045912 112.954095c80.167419 77.568476 114.853323 200.518508 112.454298 313.972399v170.530696c2.399025 113.453892-32.286878 236.403924-112.454298 313.972399-77.568476 80.167419-200.518508 114.853323-313.9724 112.454298H426.542817c-113.453892 2.399025-236.403924-32.286878-313.9724-112.454298C32.402998 833.961073-2.282906 711.011041 0.116119 597.557149V427.026454C-2.282906 313.472603 32.402998 190.52257 112.570417 112.954095 190.138893 32.886635 313.088925-1.899228 426.542817 0.599756z" fill="#FFAD10" p-id="1560"></path><path d="M112.570417 112.954095C36.90117 186.224317 1.715469 299.878128 0.116119 407.834254c137.943939 0 249.79848-111.954501 249.798481-249.89844 0-42.782613-10.795613-83.066241-29.687935-118.251942-40.583507 17.892728-77.568476 42.182857-107.656248 73.270223z" fill="#FFFFFF" opacity=".5" p-id="1561"></path><path d="M699.531872 484.403136h-0.599756c-2.798863 95.561163-76.86876 173.129639-170.930533 181.326307v52.178795h86.065023c21.591225 0 39.084116 17.492891 39.084116 39.084116s-17.492891 39.084116-39.084116 39.084116H410.649276c-21.591225 0-39.084116-17.492891-39.084116-39.084116s17.492891-39.084116 39.084116-39.084116h86.065023V665.729443C401.852851 658.33245 326.883319 580.464096 324.084457 484.403136c-34.485985 0-62.47461-27.988625-62.47461-62.57457 0-34.386025 27.788706-62.374651 62.174731-62.574569v-42.782613c0-48.580257 39.383994-87.964251 87.964251-87.964251h199.418955c48.580257 0 87.964251 39.383994 87.964251 87.964251v42.782613h0.399837c34.585944 0 62.574569 27.988625 62.57457 62.574569s-27.988625 62.574569-62.57457 62.57457z m-122.150357-50.079648l-33.286472-0.199919c-3.298659 0-6.297441-2.099147-7.396994-5.197887l-11.795206-30.987407c-2.698903-6.997156-12.694841-6.797238-15.093866 0.299879L499.313243 429.825316c-0.999594 3.098741-3.898416 5.297847-7.197076 5.497766L458.829695 436.822473c-7.596913 0.299878-10.395775 9.995938-4.298253 14.494109l26.689154 19.492078c2.698903 1.999188 3.898416 5.397806 2.998781 8.596507l-8.796425 31.787081c-1.999188 7.297034 6.197481 12.994719 12.394962 8.596507l27.188951-19.392119c2.698903-1.899228 6.297441-1.999188 8.996343-0.199919l27.888666 18.192606c6.297441 4.098334 14.294191-1.999188 11.995125-9.196262L553.791102 477.905776c-0.999594-3.1987 0-6.597319 2.598944-8.696466l25.889479-20.591631c5.897603-4.698091 2.598944-14.194231-4.89801-14.294191z" fill="#FFFFFF" p-id="1562"></path><path d="M630.160066 577.965111c0 14.294191 1.999188 28.088585 5.697684 41.183263 37.384807-33.186513 61.375057-81.167013 62.974407-134.745238h0.599756c32.08696 0 58.476235-24.190169 62.174732-55.277535-74.069898 9.096303-131.446579 72.270629-131.446579 148.83951z" fill="#FFAD10" opacity=".5" p-id="1563"></path></svg>