<?xml version="1.0" standalone="no"?><!DOCTYPE svg PUBLIC "-//W3C//DTD SVG 1.1//EN" "http://www.w3.org/Graphics/SVG/1.1/DTD/svg11.dtd"><svg t="1591317547546" class="icon" viewBox="0 0 1024 1024" version="1.1" xmlns="http://www.w3.org/2000/svg" p-id="3684" xmlns:xlink="http://www.w3.org/1999/xlink" width="200" height="200"><defs><style type="text/css"></style></defs><path d="M426.542817 0.599756h170.530695C710.527404-1.899228 833.477436 32.886635 911.045912 112.954095c80.167419 77.568476 114.853323 200.518508 112.454298 313.972399v170.530696c2.399025 113.453892-32.286878 236.403924-112.454298 313.972399-77.568476 80.167419-200.518508 114.853323-313.9724 112.454298H426.542817c-113.453892 2.399025-236.403924-32.286878-313.9724-112.454298C32.402998 833.961073-2.282906 711.011041 0.116119 597.557149V427.026454C-2.282906 313.472603 32.402998 190.52257 112.570417 112.954095 190.138893 32.886635 313.088925-1.899228 426.542817 0.599756z" fill="#2FE0CB" p-id="3685"></path><path d="M112.570417 112.954095C36.90117 186.224317 1.715469 299.878128 0.116119 407.834254c137.943939 0 249.79848-111.954501 249.798481-249.89844 0-42.782613-10.795613-83.066241-29.687935-118.251942-40.583507 17.892728-77.568476 42.182857-107.656248 73.270223z" fill="#FFFFFF" opacity=".5" p-id="3686"></path><path d="M470.82482 536.082133c4.198294-18.792363 20.89151-32.886635 40.983345-32.886635s36.78505 14.094272 40.983344 32.886635c75.469329-5.297847 145.540851-25.189763 198.319401-56.477048-13.894353-50.279566-27.388869-65.873229-37.384806-75.16945-21.291347-18.592444-47.9805-30.087772-76.169045-32.686716-6.097522-74.769613-71.870791-127.948001-138.643654-120.650967-58.276316 6.097522-107.056492 56.776926-111.554663 120.650967-23.290535 3.798456-45.281597 12.994719-64.273879 26.889072-17.792769 13.794394-32.286878 31.287285-42.382776 51.379119-4.598131 8.396588-8.596506 17.59285-12.095084 27.28891 53.278347 32.686716 125.049179 53.378307 202.217817 58.776113z m40.983345-250.598155c79.167826 0 98.759863 86.065023 98.759863 86.065022H412.948342s19.691997-86.065023 98.859823-86.065022z" fill="#FFFFFF" p-id="3687"></path><path d="M757.50831 505.394604c-0.499797-2.199106-0.999594-4.398213-1.49939-6.497359-55.077616 31.387244-126.748489 51.1792-203.517289 56.377088-4.498172 18.292566-20.991469 31.887041-40.683466 31.887041-19.691997 0-36.185294-13.594475-40.683466-31.887041-78.967907-5.397806-152.737926-26.189356-208.415299-59.17595-22.290941 78.368151-18.792363 179.227161-18.192607 190.822448 3.798456 20.991469 13.794394 40.383588 28.688341 55.677372 16.693216 16.993094 38.3844 28.088585 61.874854 31.587163h358.854159c20.691591-2.498984 40.183669-11.395369 55.677373-25.489641 14.893947-13.794394 25.389681-31.587163 30.187731-51.379119-5.297847-80.967094-8.496547-131.646498-22.290941-191.922002z" fill="#FFFFFF" p-id="3688"></path><path d="M674.741947 742.698163c0 10.795613 1.199513 21.291347 3.598538 31.387244h15.493703c20.691591-2.498984 40.183669-11.395369 55.677372-25.489641 14.893947-13.794394 25.389681-31.587163 30.187732-51.379119-2.099147-33.086553-3.898416-61.075179-6.297441-86.764738C716.325048 627.345043 674.741947 680.123594 674.741947 742.698163z" fill="#2FE0CB" opacity=".5" p-id="3689"></path></svg>