<?xml version="1.0" encoding="utf-8"?>
<!-- Generator: Adobe Illustrator 22.1.0, SVG Export Plug-In . SVG Version: 6.00 Build 0)  -->
<svg version="1.1" id="图层_1" xmlns="http://www.w3.org/2000/svg" xmlns:xlink="http://www.w3.org/1999/xlink" x="0px" y="0px"
	 viewBox="0 0 102.8 102.8" style="enable-background:new 0 0 102.8 102.8;" xml:space="preserve">
<style type="text/css">
	.st0{fill:#F95858;}
	.st1{opacity:0.8;}
	.st2{opacity:0.85;fill:url(#_矩形_3_1_);enable-background:new    ;}
	.st3{clip-path:url(#SVGID_2_);}
	.st4{fill:url(#SVGID_3_);}
	.st5{fill:url(#SVGID_4_);}
	.st6{fill:url(#SVGID_5_);}
	.st7{fill:url(#SVGID_6_);}
	.st8{fill:url(#SVGID_7_);}
	.st9{fill:url(#SVGID_8_);}
	.st10{fill:url(#SVGID_9_);}
	.st11{fill:url(#SVGID_10_);}
</style>
<title>资源 8</title>
<g id="图层_2_1_">
	<g id="图层_1-2">
		<path id="_矩形_2" class="st0" d="M57.8,102.8H45c-24.9,0-45-20.1-45-45V45C0,20.2,20.1,0,45,0h12.8c24.9,0,45,20.1,45,45v12.8
			C102.8,82.7,82.7,102.8,57.8,102.8z"/>
		<g class="st1">
			
				<linearGradient id="_矩形_3_1_" gradientUnits="userSpaceOnUse" x1="16.6764" y1="11.4716" x2="86.1236" y2="94.2284" gradientTransform="matrix(1 0 0 -1 0 104.26)">
				<stop  offset="4.000000e-02" style="stop-color:#FFFFFF;stop-opacity:0.55"/>
				<stop  offset="7.000000e-02" style="stop-color:#FFFFFF;stop-opacity:0.5"/>
				<stop  offset="0.97" style="stop-color:#FFFFFF;stop-opacity:3.000000e-02"/>
			</linearGradient>
			<path id="_矩形_3" class="st2" d="M57.8,102.8H45c-24.9,0-45-20.1-45-45V45C0,20.2,20.1,0,45,0h12.8c24.9,0,45,20.1,45,45v12.8
				C102.8,82.7,82.7,102.8,57.8,102.8z"/>
			<g>
				<defs>
					<path id="SVGID_1_" d="M102.8,45v12.8c0,24.9-20.1,45-45,45H45c-24.9,0-45-20.1-45-45V45C0,20.1,20.1,0,45,0h12.8
						C82.7,0,102.8,20.1,102.8,45z"/>
				</defs>
				<clipPath id="SVGID_2_">
					<use xlink:href="#SVGID_1_"  style="overflow:visible;"/>
				</clipPath>
				<g class="st3">
					
						<linearGradient id="SVGID_3_" gradientUnits="userSpaceOnUse" x1="-1908.1603" y1="-1160.741" x2="-1882.9602" y2="-1130.7109" gradientTransform="matrix(0.6595 -0.7517 -0.5638 -0.4946 616.1382 -1988.3135)">
						<stop  offset="4.000000e-02" style="stop-color:#FFFFFF;stop-opacity:0.55"/>
						<stop  offset="7.000000e-02" style="stop-color:#FFFFFF;stop-opacity:0.5"/>
						<stop  offset="0.97" style="stop-color:#FFFFFF;stop-opacity:3.000000e-02"/>
					</linearGradient>
					<path class="st4" d="M-1.9-4.6L-1.9-4.6c1.4-1.6,3.8-1.7,5.4-0.4l22.3,19.5c1.6,1.4,1.7,3.8,0.4,5.4v0
						c-1.4,1.6-3.8,1.7-5.4,0.4L-1.6,0.8C-3.2-0.6-3.3-3-1.9-4.6z"/>
					
						<linearGradient id="SVGID_4_" gradientUnits="userSpaceOnUse" x1="-1909.9778" y1="-1952.9937" x2="-1858.5677" y2="-1891.7338" gradientTransform="matrix(0.6595 -0.7517 -0.4285 -0.3759 522.1984 -2070.7231)">
						<stop  offset="4.000000e-02" style="stop-color:#FFFFFF;stop-opacity:0.55"/>
						<stop  offset="7.000000e-02" style="stop-color:#FFFFFF;stop-opacity:0.5"/>
						<stop  offset="0.97" style="stop-color:#FFFFFF;stop-opacity:3.000000e-02"/>
					</linearGradient>
					<path class="st5" d="M80.6,55.8L80.6,55.8c2.8-3.2,7.8-3.6,11-0.7l32,28.1c3.2,2.8,3.6,7.8,0.7,11l0,0c-2.8,3.2-7.8,3.6-11,0.7
						l-32-28.1C78.1,64,77.7,59,80.6,55.8z"/>
					
						<linearGradient id="SVGID_5_" gradientUnits="userSpaceOnUse" x1="-2629.8601" y1="-130.3703" x2="-2605.6797" y2="-101.5497" gradientTransform="matrix(6.123234e-17 -1 -1 -6.123234e-17 -97.16 -2529.3799)">
						<stop  offset="4.000000e-02" style="stop-color:#FFFFFF;stop-opacity:0.55"/>
						<stop  offset="7.000000e-02" style="stop-color:#FFFFFF;stop-opacity:0.5"/>
						<stop  offset="0.97" style="stop-color:#FFFFFF;stop-opacity:3.000000e-02"/>
					</linearGradient>
					<circle class="st6" cx="18.8" cy="88.4" r="18.8"/>
					
						<linearGradient id="SVGID_6_" gradientUnits="userSpaceOnUse" x1="-2560.1038" y1="-176.2994" x2="-2551.2561" y2="-165.7606" gradientTransform="matrix(6.123234e-17 -1 -1 -6.123234e-17 -97.16 -2529.3799)">
						<stop  offset="4.000000e-02" style="stop-color:#FFFFFF;stop-opacity:0.55"/>
						<stop  offset="7.000000e-02" style="stop-color:#FFFFFF;stop-opacity:0.5"/>
						<stop  offset="0.97" style="stop-color:#FFFFFF;stop-opacity:3.000000e-02"/>
					</linearGradient>
					<circle class="st7" cx="73.9" cy="26.3" r="6.9"/>
				</g>
			</g>
		</g>
		
			<linearGradient id="SVGID_7_" gradientUnits="userSpaceOnUse" x1="28.194" y1="64.2216" x2="46.296" y2="32.8584" gradientTransform="matrix(1 0 0 -1 0 104.26)">
			<stop  offset="4.000000e-02" style="stop-color:#FFFFFF"/>
			<stop  offset="0.34" style="stop-color:#FFFFFF"/>
			<stop  offset="1" style="stop-color:#FFFFFF;stop-opacity:0.76"/>
		</linearGradient>
		<path class="st8" d="M28.6,40.3h17.3c1.7,0,3,1.3,3,3v24.9c0,1.7-1.3,3-3,3H28.6c-1.7,0-3-1.3-3-3V43.3
			C25.6,41.6,26.9,40.3,28.6,40.3z"/>
		
			<linearGradient id="SVGID_8_" gradientUnits="userSpaceOnUse" x1="24.25" y1="72.67" x2="50.6" y2="27.04" gradientTransform="matrix(1 0 0 -1 0 104.26)">
			<stop  offset="4.000000e-02" style="stop-color:#FFFFFF"/>
			<stop  offset="0.34" style="stop-color:#FFFFFF"/>
			<stop  offset="1" style="stop-color:#FFFFFF;stop-opacity:0.76"/>
		</linearGradient>
		<path class="st9" d="M40.2,81.5c0.1,1.5-1.1,2.9-2.6,3s-2.9-1.1-3-2.6c0-0.1,0-0.2,0-0.3V27.3c-0.1-1.5,1.1-2.9,2.6-3
			c1.5-0.1,2.9,1.1,3,2.6c0,0.1,0,0.2,0,0.3V81.5z"/>
		
			<linearGradient id="SVGID_9_" gradientUnits="userSpaceOnUse" x1="56.4841" y1="69.6617" x2="74.586" y2="38.2984" gradientTransform="matrix(1 0 0 -1 0 104.26)">
			<stop  offset="4.000000e-02" style="stop-color:#FFFFFF"/>
			<stop  offset="0.34" style="stop-color:#FFFFFF"/>
			<stop  offset="1" style="stop-color:#FFFFFF;stop-opacity:0.76"/>
		</linearGradient>
		<path class="st10" d="M56.9,34.8h17.3c1.7,0,3,1.3,3,3v24.9c0,1.7-1.3,3-3,3H56.9c-1.7,0-3-1.3-3-3V37.8
			C53.9,36.2,55.2,34.8,56.9,34.8z"/>
		
			<linearGradient id="SVGID_10_" gradientUnits="userSpaceOnUse" x1="53.8878" y1="73.5387" x2="77.1878" y2="33.1887" gradientTransform="matrix(1 0 0 -1 0 104.26)">
			<stop  offset="4.000000e-02" style="stop-color:#FFFFFF"/>
			<stop  offset="0.34" style="stop-color:#FFFFFF"/>
			<stop  offset="1" style="stop-color:#FFFFFF;stop-opacity:0.76"/>
		</linearGradient>
		<path class="st11" d="M68.4,74.4c0.1,1.6-1,2.9-2.6,3c-1.6,0.1-2.9-1-3-2.6c0-0.2,0-0.3,0-0.5v-47c-0.1-1.6,1-2.9,2.6-3
			c1.6-0.1,2.9,1,3,2.6c0,0.2,0,0.3,0,0.5V74.4z"/>
	</g>
</g>
</svg>
