<?xml version="1.0" standalone="no"?><!DOCTYPE svg PUBLIC "-//W3C//DTD SVG 1.1//EN" "http://www.w3.org/Graphics/SVG/1.1/DTD/svg11.dtd"><svg t="1584325731085" class="icon" viewBox="0 0 1024 1024" version="1.1" xmlns="http://www.w3.org/2000/svg" p-id="7270" xmlns:xlink="http://www.w3.org/1999/xlink" width="200" height="200"><defs><style type="text/css"></style></defs><path d="M837.1 724.4c-16.3-30.1-30.8-68.3-39.1-91.8-28.4-79.7-27.4-42.2-34.4-101-14.8-124.4-48.8-223.4-125-223.4-132.7 0-236.9 98.9-251.7 223.3-7 58.8-6.3 107-34.7 186.7-8.4 23.5-23.1 55.3-39.4 85.4 0 0 25.6-4.8 71.4-4.8h240.5l182.5-1.8c45.7-0.1 50.6-34.5 29.9-72.6z" fill="#FFF57B" p-id="7271"></path><path d="M643.8 927.3h-265c-17.9 0-32.4-14.5-32.4-32.4s14.5-32.4 32.4-32.4h265c17.9 0 32.4 14.5 32.4 32.4s-14.5 32.4-32.4 32.4zM790.2 828.8H232.3c-32.9 0-60.1-13.9-74.6-38.2-14.1-23.7-13.6-53 1.3-80.5 15.7-28.9 29.7-59.2 37.5-81.1 21.4-59.9 25.3-100.9 29.5-144.3 1.1-11.5 2.2-23.4 3.7-35.8 8.1-68 40.6-130.7 91.4-176.5 51.6-46.5 119-72.5 189.8-73.3h0.6c70.8 0.8 138.3 26.8 189.8 73.3 50.8 45.8 83.2 108.5 91.4 176.5 1.5 12.4 2.6 24.3 3.7 35.8 4.2 43.4 8.1 84.4 29.5 144.3 7.8 21.9 21.8 52.2 37.5 81.1 14.9 27.5 15.4 56.8 1.3 80.5-14.4 24.2-41.6 38.2-74.5 38.2zM511.3 259c-115.2 1.4-208.5 84.1-221.9 196.9-1.4 11.7-2.5 23.3-3.6 34.4-4.3 45.2-8.8 91.9-32.7 158.7-8.8 24.6-24.2 58.1-41.3 89.6-4.6 8.4-5.5 16.1-2.5 21.2 3.3 5.6 11.9 8.9 23 8.9h557.8c11.1 0 19.7-3.3 23-8.9 3-5 2.1-12.8-2.5-21.2-17.1-31.4-32.5-64.9-41.3-89.6-23.9-66.9-28.3-113.6-32.7-158.7-1.1-11.2-2.2-22.8-3.6-34.4C719.7 343.2 626.4 260.4 511.3 259z" fill="#FFC30B" p-id="7272"></path><path d="M511.3 257.6c-44.2 0-80.1-35.9-80.1-80.1s35.9-80.1 80.1-80.1 80.1 35.9 80.1 80.1-36 80.1-80.1 80.1z m0-100.3c-11.1 0-20.1 9-20.1 20.1 0 11.1 9 20.1 20.1 20.1s20.1-9 20.1-20.1c0-11-9.1-20.1-20.1-20.1z" fill="#FFC30B" p-id="7273"></path></svg>