<?xml version="1.0" encoding="utf-8"?>
<!-- Generator: Adobe Illustrator 22.1.0, SVG Export Plug-In . SVG Version: 6.00 Build 0)  -->
<svg version="1.1" id="图层_1" xmlns="http://www.w3.org/2000/svg" xmlns:xlink="http://www.w3.org/1999/xlink" x="0px" y="0px"
	 viewBox="0 0 102.8 102.8" style="enable-background:new 0 0 102.8 102.8;" xml:space="preserve">
<style type="text/css">
	.st0{fill:#27C226;}
	.st1{opacity:0.8;}
	.st2{opacity:0.85;fill:url(#_矩形_3_1_);enable-background:new    ;}
	.st3{clip-path:url(#SVGID_2_);}
	.st4{fill:url(#SVGID_3_);}
	.st5{fill:url(#SVGID_4_);}
	.st6{fill:url(#SVGID_5_);}
	.st7{fill:url(#SVGID_6_);}
	.st8{fill:url(#SVGID_7_);}
</style>
<title>资源 5</title>
<g id="图层_2_1_">
	<g id="图层_1-2">
		<path id="_矩形_2" class="st0" d="M45,0h12.8c24.9,0,45,20.1,45,45v12.8c0,24.9-20.1,45-45,45H45c-24.9,0-45-20.1-45-45V45
			C0,20.1,20.2,0,45,0z"/>
		<g class="st1">
			
				<linearGradient id="_矩形_3_1_" gradientUnits="userSpaceOnUse" x1="16.723" y1="11.4616" x2="86.1703" y2="94.2184" gradientTransform="matrix(1 0 0 -1 0 104.24)">
				<stop  offset="4.000000e-02" style="stop-color:#FFFFFF;stop-opacity:0.55"/>
				<stop  offset="7.000000e-02" style="stop-color:#FFFFFF;stop-opacity:0.5"/>
				<stop  offset="0.97" style="stop-color:#FFFFFF;stop-opacity:3.000000e-02"/>
			</linearGradient>
			<path id="_矩形_3" class="st2" d="M57.8,102.8H45c-24.9,0-45-20.1-45-45V45C0,20.1,20.2,0,45,0h12.8c24.9,0,45,20.1,45,45v12.8
				C102.8,82.7,82.7,102.8,57.8,102.8z"/>
			<g>
				<defs>
					<path id="SVGID_1_" d="M102.8,45v12.8c0,24.9-20.1,45-45,45H45c-24.9,0-45-20.1-45-45V45C0,20.1,20.2,0,45,0h12.8
						C82.7,0,102.8,20.1,102.8,45z"/>
				</defs>
				<clipPath id="SVGID_2_">
					<use xlink:href="#SVGID_1_"  style="overflow:visible;"/>
				</clipPath>
				<g class="st3">
					
						<linearGradient id="SVGID_3_" gradientUnits="userSpaceOnUse" x1="-2193.2373" y1="-1112.8704" x2="-2168.0374" y2="-1082.8403" gradientTransform="matrix(0.6595 -0.7517 -0.5638 -0.4946 831.1774 -2178.7664)">
						<stop  offset="4.000000e-02" style="stop-color:#FFFFFF;stop-opacity:0.55"/>
						<stop  offset="7.000000e-02" style="stop-color:#FFFFFF;stop-opacity:0.5"/>
						<stop  offset="0.97" style="stop-color:#FFFFFF;stop-opacity:3.000000e-02"/>
					</linearGradient>
					<path class="st4" d="M-1.9-4.6L-1.9-4.6c1.4-1.6,3.8-1.7,5.4-0.4l22.3,19.5c1.6,1.4,1.7,3.8,0.4,5.4h0
						c-1.4,1.6-3.8,1.7-5.4,0.4L-1.5,0.8C-3.1-0.6-3.3-3-1.9-4.6z"/>
					
						<linearGradient id="SVGID_4_" gradientUnits="userSpaceOnUse" x1="-2194.7324" y1="-2009.9136" x2="-2143.3225" y2="-1948.6536" gradientTransform="matrix(0.6595 -0.7517 -0.4285 -0.3759 685.6716 -2306.4009)">
						<stop  offset="4.000000e-02" style="stop-color:#FFFFFF;stop-opacity:0.55"/>
						<stop  offset="7.000000e-02" style="stop-color:#FFFFFF;stop-opacity:0.5"/>
						<stop  offset="0.97" style="stop-color:#FFFFFF;stop-opacity:3.000000e-02"/>
					</linearGradient>
					<path class="st5" d="M80.6,55.8L80.6,55.8c2.8-3.2,7.8-3.6,11-0.7l32,28.1c3.2,2.8,3.6,7.8,0.7,11h0c-2.8,3.2-7.8,3.6-11,0.7
						l-32-28.1C78.1,63.9,77.8,59,80.6,55.8z"/>
					
						<linearGradient id="SVGID_5_" gradientUnits="userSpaceOnUse" x1="-3008.946" y1="248.7518" x2="-2984.7605" y2="277.5682" gradientTransform="matrix(6.123234e-17 -1 -1 -6.123234e-17 282.0067 -2908.4734)">
						<stop  offset="4.000000e-02" style="stop-color:#FFFFFF;stop-opacity:0.55"/>
						<stop  offset="7.000000e-02" style="stop-color:#FFFFFF;stop-opacity:0.5"/>
						<stop  offset="0.97" style="stop-color:#FFFFFF;stop-opacity:3.000000e-02"/>
					</linearGradient>
					<circle class="st6" cx="18.8" cy="88.4" r="18.8"/>
					
						<linearGradient id="SVGID_6_" gradientUnits="userSpaceOnUse" x1="-2939.1846" y1="202.8185" x2="-2930.342" y2="213.3615" gradientTransform="matrix(6.123234e-17 -1 -1 -6.123234e-17 282.0067 -2908.4734)">
						<stop  offset="4.000000e-02" style="stop-color:#FFFFFF;stop-opacity:0.55"/>
						<stop  offset="7.000000e-02" style="stop-color:#FFFFFF;stop-opacity:0.5"/>
						<stop  offset="0.97" style="stop-color:#FFFFFF;stop-opacity:3.000000e-02"/>
					</linearGradient>
					<circle class="st7" cx="73.9" cy="26.3" r="6.9"/>
				</g>
			</g>
		</g>
		
			<linearGradient id="SVGID_7_" gradientUnits="userSpaceOnUse" x1="28.6967" y1="52.9731" x2="74.1268" y2="52.9731" gradientTransform="matrix(1 0 0 -1 0 104.24)">
			<stop  offset="4.000000e-02" style="stop-color:#FFFFFF"/>
			<stop  offset="0.34" style="stop-color:#FFFFFF"/>
			<stop  offset="1" style="stop-color:#FFFFFF;stop-opacity:0.76"/>
		</linearGradient>
		<path class="st8" d="M59.4,30.2L59.4,30.2c-2.1-2.4-4.4-5-6.2-7.5c-0.1-0.2-0.3-0.3-0.5-0.5c-0.9-0.7-2.2-0.5-2.9,0.4
			c-1.7,2.2-3.7,4.5-5.6,6.7l-0.6,0.7c-7.3,8.5-14.9,17.3-14.9,28.4C29,71,39.3,81,51.9,80.7c12.2-0.3,22-10.1,22.2-22.2
			C74.2,47.4,66.7,38.7,59.4,30.2z M52.2,70.1c-0.1,1.1-1.1,2-2.2,2l0,0c-0.2,0-0.3,0-0.5,0c-4.4-1-10.9-7.1-12.3-12.9
			c-0.4-1.1,0.2-2.4,1.3-2.8s2.4,0.2,2.8,1.3c0,0.1,0.1,0.3,0.1,0.4c1,4.3,6.3,9,9,9.6C51.5,68,52.3,69,52.2,70.1z"/>
	</g>
</g>
</svg>
