<?xml version="1.0" encoding="utf-8"?>
<!-- Generator: Adobe Illustrator 22.1.0, SVG Export Plug-In . SVG Version: 6.00 Build 0)  -->
<svg version="1.1" id="图层_1" xmlns="http://www.w3.org/2000/svg" xmlns:xlink="http://www.w3.org/1999/xlink" x="0px" y="0px"
	 viewBox="0 0 102.8 102.8" style="enable-background:new 0 0 102.8 102.8;" xml:space="preserve">
<style type="text/css">
	.st0{fill:#F95858;}
	.st1{opacity:0.8;}
	.st2{opacity:0.85;fill:url(#_矩形_3_1_);enable-background:new    ;}
	.st3{clip-path:url(#SVGID_2_);}
	.st4{fill:url(#SVGID_3_);}
	.st5{fill:url(#SVGID_4_);}
	.st6{fill:url(#SVGID_5_);}
	.st7{fill:url(#SVGID_6_);}
	.st8{fill:url(#SVGID_7_);}
	.st9{fill:url(#SVGID_8_);}
</style>
<title>资源 7</title>
<g id="图层_2_1_">
	<g id="图层_1-2">
		<path id="_矩形_2" class="st0" d="M57.8,102.8H45c-24.9,0-45-20.1-45-45V45C0,20.1,20.1,0,45,0h12.8c24.9,0,45,20.1,45,45v12.8
			C102.8,82.7,82.7,102.8,57.8,102.8z"/>
		<g class="st1">
			
				<linearGradient id="_矩形_3_1_" gradientUnits="userSpaceOnUse" x1="16.6793" y1="33.4592" x2="86.1207" y2="116.2208" gradientTransform="matrix(1 0 0 -1 0 126.24)">
				<stop  offset="4.000000e-02" style="stop-color:#FFFFFF;stop-opacity:0.55"/>
				<stop  offset="7.000000e-02" style="stop-color:#FFFFFF;stop-opacity:0.5"/>
				<stop  offset="0.97" style="stop-color:#FFFFFF;stop-opacity:3.000000e-02"/>
			</linearGradient>
			<path id="_矩形_3" class="st2" d="M57.8,102.8H45c-24.9,0-45-20.1-45-45V45C0,20.1,20.1,0,45,0h12.8c24.9,0,45,20.1,45,45v12.8
				C102.8,82.7,82.7,102.8,57.8,102.8z"/>
			<g>
				<defs>
					<path id="SVGID_1_" d="M57.8,102.8H45c-24.9,0-45-20.1-45-45V45C0,20.1,20.1,0,45,0h12.8c24.9,0,45,20.1,45,45v12.8
						C102.8,82.7,82.7,102.8,57.8,102.8z"/>
				</defs>
				<clipPath id="SVGID_2_">
					<use xlink:href="#SVGID_1_"  style="overflow:visible;"/>
				</clipPath>
				<g class="st3">
					
						<linearGradient id="SVGID_3_" gradientUnits="userSpaceOnUse" x1="217.3741" y1="787.9409" x2="242.5741" y2="817.9708" gradientTransform="matrix(0.7517 0.6595 0.4946 -0.5638 -476.9368 313.109)">
						<stop  offset="4.000000e-02" style="stop-color:#FFFFFF;stop-opacity:0.55"/>
						<stop  offset="7.000000e-02" style="stop-color:#FFFFFF;stop-opacity:0.5"/>
						<stop  offset="0.97" style="stop-color:#FFFFFF;stop-opacity:3.000000e-02"/>
					</linearGradient>
					<path class="st4" d="M107.4-1.9L107.4-1.9c1.6,1.4,1.7,3.8,0.4,5.4L88.2,25.7c-1.4,1.6-3.8,1.7-5.4,0.4l0,0
						c-1.6-1.4-1.7-3.8-0.4-5.4L102-1.6C103.4-3.2,105.8-3.3,107.4-1.9z"/>
					
						<linearGradient id="SVGID_4_" gradientUnits="userSpaceOnUse" x1="213.92" y1="546.4985" x2="265.33" y2="607.7685" gradientTransform="matrix(0.7517 0.6595 0.3759 -0.4285 -370.3208 191.5723)">
						<stop  offset="4.000000e-02" style="stop-color:#FFFFFF;stop-opacity:0.55"/>
						<stop  offset="7.000000e-02" style="stop-color:#FFFFFF;stop-opacity:0.5"/>
						<stop  offset="0.97" style="stop-color:#FFFFFF;stop-opacity:3.000000e-02"/>
					</linearGradient>
					<path class="st5" d="M47,80.6L47,80.6c3.2,2.8,3.6,7.8,0.7,11l-28.1,32c-2.8,3.2-7.8,3.6-11,0.7l0,0c-3.2-2.8-3.6-7.8-0.7-11
						l28.1-32C38.8,78.1,43.8,77.7,47,80.6z"/>
					
						<linearGradient id="SVGID_5_" gradientUnits="userSpaceOnUse" x1="2.3197" y1="93.0297" x2="26.5003" y2="121.8503" gradientTransform="matrix(1 0 0 -1 0 126.24)">
						<stop  offset="4.000000e-02" style="stop-color:#FFFFFF;stop-opacity:0.55"/>
						<stop  offset="7.000000e-02" style="stop-color:#FFFFFF;stop-opacity:0.5"/>
						<stop  offset="0.97" style="stop-color:#FFFFFF;stop-opacity:3.000000e-02"/>
					</linearGradient>
					<circle class="st6" cx="14.4" cy="18.8" r="18.8"/>
					
						<linearGradient id="SVGID_6_" gradientUnits="userSpaceOnUse" x1="72.0787" y1="47.0985" x2="80.9213" y2="57.6415" gradientTransform="matrix(1 0 0 -1 0 126.24)">
						<stop  offset="4.000000e-02" style="stop-color:#FFFFFF;stop-opacity:0.55"/>
						<stop  offset="7.000000e-02" style="stop-color:#FFFFFF;stop-opacity:0.5"/>
						<stop  offset="0.97" style="stop-color:#FFFFFF;stop-opacity:3.000000e-02"/>
					</linearGradient>
					<circle class="st7" cx="76.5" cy="73.9" r="6.9"/>
				</g>
			</g>
		</g>
		
			<linearGradient id="SVGID_7_" gradientUnits="userSpaceOnUse" x1="47.3551" y1="106.4014" x2="56.5451" y2="90.4814" gradientTransform="matrix(1 0 0 -1 0 126.24)">
			<stop  offset="4.000000e-02" style="stop-color:#FFFFFF"/>
			<stop  offset="0.34" style="stop-color:#FFFFFF"/>
			<stop  offset="1" style="stop-color:#FFFFFF;stop-opacity:0.76"/>
		</linearGradient>
		<path class="st8" d="M51.2,25.5c0.1,0,0.2-0.1,0.3-0.1c0.4-0.3,0.8-0.5,1.1-0.9c0.5-0.4,1-0.8,1.6-1c0.7-0.2,1.4-0.1,2.1,0.2
			c0.4,0.1,0.7,0.3,1,0.5l0.8,0.6c0.2,0.2,0.5,0.4,0.8,0.5c0.3,0.2,0.7,0.2,1.1,0.2c0.4,0,0.8-0.1,1.1-0.2c0.3-0.1,0.6-0.2,0.9-0.3
			c0.3-0.1,0.6-0.2,0.8-0.2c0.3,0,0.7,0,1,0.1c0.4,0.1,0.7,0.4,0.9,0.7c0.2,0.3,0.2,0.7,0.1,1c-0.1,0.4-0.2,0.7-0.5,1
			c-0.2,0.3-0.5,0.6-0.9,0.8c-0.7,0.4-1.3,0.9-1.8,1.5c-0.4,0.5-0.9,1-1.3,1.6c-0.2,0.3-0.5,0.6-0.7,1c-0.3,0.4-0.5,0.7-0.7,1.1
			c-0.3,0.4-0.6,0.9-0.9,1.3H44.4c-0.3-0.5-0.6-1-0.9-1.4s-0.5-0.8-0.8-1.2s-0.6-0.8-0.8-1.1c-0.4-0.6-0.9-1.1-1.5-1.6
			c-0.5-0.5-1.1-0.9-1.6-1.3c-0.6-0.4-1-0.9-1.2-1.5c-0.2-0.6,0-1.3,0.6-1.6c0.3-0.2,0.6-0.3,1-0.2c0.4,0,0.8,0.1,1.3,0.2l1.3,0.4
			c0.4,0.1,0.8,0.1,1.1,0.1c0.5-0.1,1-0.3,1.4-0.6c0.5-0.4,1-0.8,1.6-1.1c0.6-0.3,1.2-0.5,1.9-0.3c0.6,0,1.1,0.3,1.6,0.6
			c0.2,0.2,0.4,0.4,0.6,0.5c0.2,0.1,0.4,0.3,0.6,0.4C50.6,25.2,50.9,25.4,51.2,25.5L51.2,25.5z"/>
		
			<linearGradient id="SVGID_8_" gradientUnits="userSpaceOnUse" x1="39.7196" y1="86.0909" x2="61.6733" y2="48.0692" gradientTransform="matrix(1 0 0 -1 0 126.24)">
			<stop  offset="4.000000e-02" style="stop-color:#FFFFFF"/>
			<stop  offset="0.34" style="stop-color:#FFFFFF"/>
			<stop  offset="1" style="stop-color:#FFFFFF;stop-opacity:0.76"/>
		</linearGradient>
		<path class="st9" d="M74.3,57.6c-0.3-1.9-0.9-3.7-1.7-5.4c-0.8-1.5-1.8-2.9-2.9-4.1c-1-1.1-2.1-2.1-3.3-3c-1.3-1-2.4-1.9-3.3-2.8
			s-1.8-1.7-2.4-2.4c-0.7-0.7-1.4-1.4-2-2.2H43.8c-0.6,0.7-1.2,1.4-2,2.2c-0.7,0.8-1.5,1.6-2.3,2.3c-0.9,0.8-1.9,1.7-3.1,2.7
			c-1.3,1.1-2.6,2.3-3.6,3.6c-1.1,1.4-2.1,2.9-2.8,4.5c-0.8,1.7-1.3,3.4-1.5,5.2c-0.6,3.9,0.3,7.9,2.3,11.2c1.2,1.9,2.7,3.6,4.4,4.9
			c2,1.6,4.3,2.8,6.8,3.6c3,1,6.1,1.4,9.2,1.4c3,0,6.1-0.4,9-1.2c2.4-0.7,4.8-1.8,6.9-3.2c1.8-1.3,3.4-2.9,4.6-4.8
			c1.1-1.8,1.9-3.7,2.3-5.8C74.5,62.2,74.6,59.9,74.3,57.6z M57.9,54.7L57.9,54.7L57.9,54.7c0.7-0.1,1.4,0.5,1.4,1.2
			c0.1,0.7-0.5,1.4-1.2,1.4c-0.1,0-0.2,0-0.2,0h-5.2v2.6h5.2c0.7-0.1,1.4,0.5,1.4,1.2s-0.5,1.4-1.2,1.4c-0.1,0-0.2,0-0.2,0h-5.2V69
			c-0.1,0.7-0.7,1.3-1.4,1.2c-0.6-0.1-1.1-0.6-1.2-1.2v-6.5h-5.2c-0.7-0.1-1.3-0.7-1.2-1.4c0.1-0.6,0.6-1.1,1.2-1.2H50v-2.6h-5.2
			c-0.7,0-1.3-0.6-1.3-1.3c0-0.3,0.1-0.7,0.4-0.9c0.2-0.2,0.6-0.4,0.9-0.4h4L44,49c-0.5-0.6-0.4-1.4,0.1-1.9
			c0.6-0.5,1.4-0.4,1.9,0.2l5.4,6.3l5.6-6.3c0.5-0.6,1.3-0.6,1.9-0.1s0.6,1.3,0.1,1.9l-5,5.7H57.9z"/>
	</g>
</g>
</svg>
