<?xml version="1.0" encoding="utf-8"?>
<!-- Generator: Adobe Illustrator 22.1.0, SVG Export Plug-In . SVG Version: 6.00 Build 0)  -->
<svg version="1.1" id="图层_1" xmlns="http://www.w3.org/2000/svg" xmlns:xlink="http://www.w3.org/1999/xlink" x="0px" y="0px"
	 viewBox="0 0 102.8 102.8" style="enable-background:new 0 0 102.8 102.8;" xml:space="preserve">
<style type="text/css">
	.st0{fill:#F646DD;}
	.st1{opacity:0.8;}
	.st2{opacity:0.85;fill:url(#_矩形_3_1_);enable-background:new    ;}
	.st3{clip-path:url(#SVGID_2_);}
	.st4{fill:url(#SVGID_3_);}
	.st5{fill:url(#SVGID_4_);}
	.st6{fill:url(#SVGID_5_);}
	.st7{fill:url(#SVGID_6_);}
	.st8{fill:url(#SVGID_7_);}
	.st9{fill:url(#SVGID_8_);}
	.st10{fill:url(#SVGID_9_);}
</style>
<title>资源 6</title>
<g id="图层_2_1_">
	<g id="图层_1-2">
		<path id="_矩形_2" class="st0" d="M45,0h12.8c24.9,0,45,20.1,45,45v12.8c0,24.9-20.1,45-45,45H45c-24.9,0-45-20.1-45-45V45
			C0,20.1,20.2,0,45,0z"/>
		<g class="st1">
			
				<linearGradient id="_矩形_3_1_" gradientUnits="userSpaceOnUse" x1="16.7075" y1="11.4716" x2="86.1548" y2="94.2284" gradientTransform="matrix(1 0 0 -1 0 104.26)">
				<stop  offset="4.000000e-02" style="stop-color:#FFFFFF;stop-opacity:0.55"/>
				<stop  offset="7.000000e-02" style="stop-color:#FFFFFF;stop-opacity:0.5"/>
				<stop  offset="0.97" style="stop-color:#FFFFFF;stop-opacity:3.000000e-02"/>
			</linearGradient>
			<path id="_矩形_3" class="st2" d="M57.8,102.8H45c-24.9,0-45-20.1-45-45V45C0,20.2,20.2,0,45,0h12.8c24.9,0,45,20.1,45,45v12.8
				C102.8,82.7,82.7,102.8,57.8,102.8z"/>
			<g>
				<defs>
					<path id="SVGID_1_" d="M102.8,45v12.8c0,24.9-20.1,45-45,45H45c-24.9,0-45-20.1-45-45V45C0,20.1,20.2,0,45,0h12.8
						C82.7,0,102.8,20.1,102.8,45z"/>
				</defs>
				<clipPath id="SVGID_2_">
					<use xlink:href="#SVGID_1_"  style="overflow:visible;"/>
				</clipPath>
				<g class="st3">
					
						<linearGradient id="SVGID_3_" gradientUnits="userSpaceOnUse" x1="-2620.1187" y1="-1041.1975" x2="-2594.9187" y2="-1011.1675" gradientTransform="matrix(0.6595 -0.7517 -0.5638 -0.4946 1153.0917 -2463.9143)">
						<stop  offset="4.000000e-02" style="stop-color:#FFFFFF;stop-opacity:0.55"/>
						<stop  offset="7.000000e-02" style="stop-color:#FFFFFF;stop-opacity:0.5"/>
						<stop  offset="0.97" style="stop-color:#FFFFFF;stop-opacity:3.000000e-02"/>
					</linearGradient>
					<path class="st4" d="M-1.9-4.6L-1.9-4.6c1.4-1.6,3.8-1.7,5.4-0.4l22.3,19.5c1.6,1.4,1.7,3.8,0.4,5.4v0
						c-1.4,1.6-3.8,1.7-5.4,0.4L-1.6,0.8C-3.1-0.6-3.3-3-1.9-4.6z"/>
					
						<linearGradient id="SVGID_4_" gradientUnits="userSpaceOnUse" x1="-2621.1348" y1="-2095.1128" x2="-2569.7349" y2="-2033.8429" gradientTransform="matrix(0.6595 -0.7517 -0.4285 -0.3759 930.3964 -2659.2791)">
						<stop  offset="4.000000e-02" style="stop-color:#FFFFFF;stop-opacity:0.55"/>
						<stop  offset="7.000000e-02" style="stop-color:#FFFFFF;stop-opacity:0.5"/>
						<stop  offset="0.97" style="stop-color:#FFFFFF;stop-opacity:3.000000e-02"/>
					</linearGradient>
					<path class="st5" d="M80.6,55.8L80.6,55.8c2.8-3.2,7.8-3.6,11-0.7l32,28.1c3.2,2.8,3.6,7.8,0.7,11v0c-2.8,3.2-7.8,3.6-11,0.7
						l-32-28.1C78.1,64,77.8,59,80.6,55.8z"/>
					
						<linearGradient id="SVGID_5_" gradientUnits="userSpaceOnUse" x1="-3576.5618" y1="816.3618" x2="-3552.3762" y2="845.1783" gradientTransform="matrix(6.123234e-17 -1 -1 -6.123234e-17 849.6012 -3476.0789)">
						<stop  offset="4.000000e-02" style="stop-color:#FFFFFF;stop-opacity:0.55"/>
						<stop  offset="7.000000e-02" style="stop-color:#FFFFFF;stop-opacity:0.5"/>
						<stop  offset="0.97" style="stop-color:#FFFFFF;stop-opacity:3.000000e-02"/>
					</linearGradient>
					<circle class="st6" cx="18.8" cy="88.4" r="18.8"/>
					
						<linearGradient id="SVGID_6_" gradientUnits="userSpaceOnUse" x1="-3506.8" y1="770.4285" x2="-3497.9578" y2="780.9716" gradientTransform="matrix(6.123234e-17 -1 -1 -6.123234e-17 849.6012 -3476.0789)">
						<stop  offset="4.000000e-02" style="stop-color:#FFFFFF;stop-opacity:0.55"/>
						<stop  offset="7.000000e-02" style="stop-color:#FFFFFF;stop-opacity:0.5"/>
						<stop  offset="0.97" style="stop-color:#FFFFFF;stop-opacity:3.000000e-02"/>
					</linearGradient>
					<circle class="st7" cx="73.9" cy="26.3" r="6.9"/>
				</g>
			</g>
		</g>
		
			<linearGradient id="SVGID_7_" gradientUnits="userSpaceOnUse" x1="28.5312" y1="68.54" x2="75.4212" y2="68.54" gradientTransform="matrix(1 0 0 -1 0 104.26)">
			<stop  offset="4.000000e-02" style="stop-color:#FFFFFF"/>
			<stop  offset="0.34" style="stop-color:#FFFFFF"/>
			<stop  offset="1" style="stop-color:#FFFFFF;stop-opacity:0.76"/>
		</linearGradient>
		<polygon class="st8" points="28.5,35.2 52,22.4 75.4,35.2 52,49 		"/>
		
			<linearGradient id="SVGID_8_" gradientUnits="userSpaceOnUse" x1="25.4412" y1="44.53" x2="48.8912" y2="44.53" gradientTransform="matrix(1 0 0 -1 0 104.26)">
			<stop  offset="4.000000e-02" style="stop-color:#FFFFFF"/>
			<stop  offset="0.34" style="stop-color:#FFFFFF"/>
			<stop  offset="1" style="stop-color:#FFFFFF;stop-opacity:0.76"/>
		</linearGradient>
		<polygon class="st9" points="25.4,67.3 25.4,39.1 48.9,53.8 48.9,80.4 		"/>
		
			<linearGradient id="SVGID_9_" gradientUnits="userSpaceOnUse" x1="53.9612" y1="44.53" x2="77.4112" y2="44.53" gradientTransform="matrix(1 0 0 -1 0 104.26)">
			<stop  offset="4.000000e-02" style="stop-color:#FFFFFF"/>
			<stop  offset="0.34" style="stop-color:#FFFFFF"/>
			<stop  offset="1" style="stop-color:#FFFFFF;stop-opacity:0.76"/>
		</linearGradient>
		<polygon class="st10" points="54,53.8 77.4,39.1 77.4,67.3 54,80.4 		"/>
	</g>
</g>
</svg>
